<svg width="586" height="38" viewBox="0 0 586 38" fill="none" xmlns="http://www.w3.org/2000/svg">
<path d="M7.16406 27.6484C7.03385 27.8568 6.8776 28.0521 6.69531 28.2344C6.51302 28.3906 6.34375 28.5599 6.1875 28.7422C6.00521 28.8203 5.79688 28.8594 5.5625 28.8594C5.35417 28.8594 5.14583 28.8594 4.9375 28.8594C4.75521 28.8333 4.57292 28.8333 4.39062 28.8594C4.23438 28.8594 4.10417 28.9115 4 29.0156C3.79167 28.9635 3.63542 28.8724 3.53125 28.7422C3.42708 28.5859 3.24479 28.4948 2.98438 28.4688C2.88021 28.4427 2.77604 28.4427 2.67188 28.4688C2.28125 28.026 1.91667 27.5573 1.57812 27.0625C1.26562 26.5677 0.966146 26.099 0.679688 25.6562C0.653646 24.6927 0.575521 23.7161 0.445312 22.7266C0.419271 22.4922 0.380208 22.2578 0.328125 22.0234C0.276042 21.7891 0.236979 21.5677 0.210938 21.3594C0.210938 21.099 0.223958 20.8516 0.25 20.6172C0.302083 20.3568 0.341146 20.1224 0.367188 19.9141C0.471354 19.1589 0.588542 18.4167 0.71875 17.6875C0.848958 16.9583 0.966146 16.2161 1.07031 15.4609C1.17448 14.7839 1.22656 14.0807 1.22656 13.3516C1.22656 12.5964 1.10938 11.8932 0.875 11.2422L0.835938 11.0469C0.888021 10.8385 0.940104 10.6693 0.992188 10.5391C1.07031 10.3828 1.1224 10.2135 1.14844 10.0312C1.20052 9.74479 1.13542 9.53646 0.953125 9.40625C1.03125 9.19792 1.16146 9.06771 1.34375 9.01562C1.52604 8.9375 1.63021 8.78125 1.65625 8.54688C1.68229 8.44271 1.68229 8.33854 1.65625 8.23438C1.86458 8.15625 2.07292 8.09115 2.28125 8.03906C2.51562 7.96094 2.73698 7.94792 2.94531 8C3.28385 8.05208 3.58333 8.16927 3.84375 8.35156C4.10417 8.50781 4.35156 8.6901 4.58594 8.89844C5.0026 10.1484 5.17188 11.4766 5.09375 12.8828C5.01562 14.263 4.88542 15.6562 4.70312 17.0625C4.52083 18.4688 4.40365 19.849 4.35156 21.2031C4.29948 22.5312 4.50781 23.7682 4.97656 24.9141L5.05469 24.9531C5.1849 24.9792 5.28906 24.9401 5.36719 24.8359C5.44531 24.7057 5.54948 24.6536 5.67969 24.6797C5.78385 24.7318 5.84896 24.7578 5.875 24.7578C5.97917 25.2786 6.14844 25.7734 6.38281 26.2422C6.61719 26.7109 6.8776 27.1797 7.16406 27.6484ZM43.1406 7.76562C43.1406 7.92188 43.0625 8.05208 42.9062 8.15625C42.776 8.26042 42.6198 8.36458 42.4375 8.46875C42.2812 8.57292 42.112 8.6901 41.9297 8.82031C41.7734 8.95052 41.6693 9.10677 41.6172 9.28906H41.2656C41.1094 9.28906 41.0312 9.34115 41.0312 9.44531H40.9141C40.6797 9.44531 40.5234 9.38021 40.4453 9.25C40.3672 9.09375 40.1979 9.01562 39.9375 9.01562C39.2865 9.01562 38.6354 9.02865 37.9844 9.05469C37.3594 9.05469 36.7214 9.06771 36.0703 9.09375C34.2734 9.09375 32.5026 9.15885 30.7578 9.28906C29.0391 9.39323 27.3333 9.75781 25.6406 10.3828C25.5885 10.4089 25.5234 10.4219 25.4453 10.4219C25.3151 10.4219 25.237 10.3698 25.2109 10.2656C25.2109 10.1615 25.1458 10.1094 25.0156 10.1094C24.651 10.1094 24.3125 10.1484 24 10.2266C23.6875 10.3047 23.349 10.3568 22.9844 10.3828C22.5677 10.7474 22.0859 11.0469 21.5391 11.2812C21.0182 11.5156 20.4714 11.75 19.8984 11.9844C19.3516 12.1927 18.8177 12.4271 18.2969 12.6875C17.776 12.9219 17.3203 13.2344 16.9297 13.625C16.9818 13.9375 17.0208 14.25 17.0469 14.5625C17.099 14.849 17.125 15.1354 17.125 15.4219C17.125 16.5417 17.0208 17.6484 16.8125 18.7422C16.6042 19.8099 16.5 20.8906 16.5 21.9844V22.5703C16.5 22.7526 16.513 22.9479 16.5391 23.1562C16.5911 23.2865 16.6823 23.3776 16.8125 23.4297C16.9688 23.4557 17.099 23.5078 17.2031 23.5859C17.5417 23.3516 17.8802 23.1693 18.2188 23.0391C18.5833 22.8828 18.9479 22.7396 19.3125 22.6094C19.7031 22.4531 20.0677 22.3099 20.4062 22.1797C20.7708 22.0234 21.1224 21.8411 21.4609 21.6328H22.5547C22.8411 21.4245 23.1797 21.2682 23.5703 21.1641C23.9609 21.0599 24.2214 20.8255 24.3516 20.4609C24.4036 20.513 24.4557 20.5391 24.5078 20.5391H24.6641C24.9766 20.5391 25.2891 20.474 25.6016 20.3438C25.9401 20.2135 26.2786 20.0833 26.6172 19.9531C26.9557 19.7969 27.2943 19.6536 27.6328 19.5234C27.9714 19.3932 28.3229 19.3281 28.6875 19.3281C28.7656 19.3281 28.8307 19.3411 28.8828 19.3672C28.9609 19.3672 29.0391 19.3672 29.1172 19.3672C29.2734 19.1068 29.4948 18.9115 29.7812 18.7812C30.0677 18.625 30.3672 18.4948 30.6797 18.3906C30.9922 18.2865 31.3047 18.1823 31.6172 18.0781C31.9557 17.974 32.2422 17.8438 32.4766 17.6875H32.6328C32.7891 17.6875 32.9062 17.7266 32.9844 17.8047C33.0885 17.8568 33.2057 17.9089 33.3359 17.9609C34.0651 17.4922 34.8073 17.2578 35.5625 17.2578C36.3438 17.2318 37.151 17.1797 37.9844 17.1016C38.1667 17.4141 38.3229 17.6745 38.4531 17.8828C38.6094 18.0651 38.6875 18.3385 38.6875 18.7031C38.6875 18.8854 38.6745 19.0156 38.6484 19.0938C38.362 19.1979 38.1406 19.2891 37.9844 19.3672L37.5547 19.6016C37.4245 19.6536 37.2682 19.7057 37.0859 19.7578C36.9036 19.7839 36.6432 19.7969 36.3047 19.7969C36.0964 19.7969 36.0052 19.862 36.0312 19.9922C36.0573 20.0964 35.9922 20.1615 35.8359 20.1875C35.4714 20.3177 35.1068 20.4219 34.7422 20.5C34.3776 20.5781 34.013 20.6823 33.6484 20.8125C32.8932 21.0469 32.138 21.3073 31.3828 21.5938C30.6536 21.8542 29.8984 22.0625 29.1172 22.2188C28.4661 22.7396 27.763 23.1693 27.0078 23.5078C26.2526 23.8203 25.4714 24.0807 24.6641 24.2891C23.8047 24.9141 22.9583 25.5 22.125 26.0469C21.2917 26.5677 20.3542 27.0104 19.3125 27.375C19.1823 27.5052 19.026 27.6224 18.8438 27.7266C18.6615 27.8307 18.5443 27.987 18.4922 28.1953C18.4401 28.1953 18.375 28.1953 18.2969 28.1953C18.2448 28.1693 18.1797 28.1562 18.1016 28.1562C17.737 28.1562 17.4505 28.2474 17.2422 28.4297C17.0599 28.5859 16.8255 28.6901 16.5391 28.7422C16.4089 29.1328 16.3438 29.4714 16.3438 29.7578C16.3438 30.1224 16.4089 30.4479 16.5391 30.7344C16.6693 31.0208 16.8255 31.2943 17.0078 31.5547C17.2161 31.8151 17.4245 32.0755 17.6328 32.3359C17.8672 32.5703 18.0625 32.8307 18.2188 33.1172C18.1667 33.4297 18.0625 33.6771 17.9062 33.8594C17.776 34.0677 17.6198 34.25 17.4375 34.4062C17.2552 34.5885 17.0729 34.7708 16.8906 34.9531C16.7344 35.1354 16.6172 35.3698 16.5391 35.6562C16.0703 35.7344 15.6146 35.7734 15.1719 35.7734C14.8854 35.7734 14.5859 35.7344 14.2734 35.6562C13.987 35.6042 13.7135 35.5 13.4531 35.3438C13.0365 34.7708 12.737 34.1589 12.5547 33.5078C12.3984 32.8568 12.1771 32.2057 11.8906 31.5547L11.9297 31.2812C11.9297 30.7083 11.8255 30.2135 11.6172 29.7969C11.4349 29.3542 11.1484 28.9115 10.7578 28.4688C10.7839 28.4167 10.7969 28.3255 10.7969 28.1953C10.7969 27.8568 10.6927 27.5443 10.4844 27.2578C10.5365 26.6589 10.6927 26.1901 10.9531 25.8516C11.2396 25.513 11.5521 25.1354 11.8906 24.7188V24.25C11.8906 23.1302 11.9818 22.0365 12.1641 20.9688C12.3724 19.875 12.4766 18.7812 12.4766 17.6875C12.4766 17.0104 12.4245 16.4115 12.3203 15.8906C12.2422 15.8646 12.138 15.8516 12.0078 15.8516C11.8776 15.8516 11.7734 15.8906 11.6953 15.9688C11.6172 16.0208 11.5521 16.0859 11.5 16.1641C11.4479 16.2422 11.3828 16.3203 11.3047 16.3984C11.2526 16.4766 11.1615 16.5286 11.0312 16.5547C10.5885 16.4766 10.3021 16.2682 10.1719 15.9297C10.0417 15.5911 9.97656 15.2135 9.97656 14.7969C9.97656 14.5625 9.98958 14.3281 10.0156 14.0938C10.0417 13.8594 10.0677 13.612 10.0938 13.3516C11.0833 12.2578 12.2682 11.2422 13.6484 10.3047C15.0286 9.36719 16.3958 8.61198 17.75 8.03906C17.8281 8.01302 17.9193 8 18.0234 8C18.1276 8 18.2188 8.02604 18.2969 8.07812C18.375 8.10417 18.4661 8.11719 18.5703 8.11719C18.6484 8.11719 18.7135 8.09115 18.7656 8.03906C19.026 8.03906 19.2083 7.96094 19.3125 7.80469C19.4167 7.64844 19.5599 7.49219 19.7422 7.33594C19.9245 7.46615 20.0807 7.53125 20.2109 7.53125C20.4714 7.53125 20.7318 7.41406 20.9922 7.17969C21.2526 6.94531 21.5391 6.80208 21.8516 6.75C23.0495 6.54167 24.2214 6.3724 25.3672 6.24219C26.5391 6.11198 27.6979 5.8125 28.8438 5.34375C29.1042 5.47396 29.3646 5.55208 29.625 5.57812C29.8854 5.60417 30.1458 5.61719 30.4062 5.61719C30.6927 5.61719 31.0052 5.59115 31.3438 5.53906C31.7083 5.46094 31.9948 5.30469 32.2031 5.07031C33.0365 5.17448 33.9219 5.21354 34.8594 5.1875C35.8229 5.16146 36.7734 5.17448 37.7109 5.22656C38.6745 5.27865 39.599 5.40885 40.4844 5.61719C41.3698 5.82552 42.151 6.20312 42.8281 6.75C42.8802 6.93229 42.9453 7.10156 43.0234 7.25781C43.1016 7.41406 43.1406 7.58333 43.1406 7.76562ZM77.9062 6.125C77.9062 6.35938 77.8021 6.55469 77.5938 6.71094C77.4115 6.86719 77.3203 6.98438 77.3203 7.0625C77.3203 7.21875 77.3464 7.33594 77.3984 7.41406C77.4505 7.46615 77.4766 7.53125 77.4766 7.60938V7.80469C77.2161 8.0651 77.0208 8.35156 76.8906 8.66406C76.7604 8.95052 76.6562 9.26302 76.5781 9.60156C76.5 9.91406 76.4219 10.2396 76.3438 10.5781C76.2917 10.9167 76.2135 11.2422 76.1094 11.5547C75.9792 11.8672 75.8099 12.1406 75.6016 12.375C75.3932 12.5833 75.224 12.8307 75.0938 13.1172C74.8854 13.5859 74.7292 14.0677 74.625 14.5625C74.5208 15.0573 74.2995 15.513 73.9609 15.9297V16.125C73.9349 16.3073 73.987 16.4635 74.1172 16.5938C73.6224 17.2448 73.2318 18.026 72.9453 18.9375C72.6589 19.8229 72.4245 20.7604 72.2422 21.75C72.0599 22.7135 71.9036 23.6901 71.7734 24.6797C71.6432 25.6432 71.487 26.5156 71.3047 27.2969C71.4349 27.8698 71.6302 28.4167 71.8906 28.9375C72.1771 29.4323 72.4505 29.9531 72.7109 30.5C73.2318 30.6302 73.7266 30.8125 74.1953 31.0469C74.6901 31.2812 75.0417 31.6589 75.25 32.1797C75.1979 32.7005 75.0286 33.1042 74.7422 33.3906C74.4557 33.6771 74.1042 33.9766 73.6875 34.2891C73.401 34.1849 73.1667 34.0938 72.9844 34.0156C72.8021 33.9635 72.5286 33.9635 72.1641 34.0156C71.6693 33.625 71.2005 33.3125 70.7578 33.0781C70.3411 32.8438 69.9635 32.4401 69.625 31.8672C69.5729 31.7891 69.4948 31.75 69.3906 31.75H69.0391C68.9089 31.4375 68.7526 31.112 68.5703 30.7734C68.388 30.4089 68.2057 30.0443 68.0234 29.6797C67.8411 29.2891 67.6849 28.9115 67.5547 28.5469C67.4245 28.1562 67.3594 27.8047 67.3594 27.4922C67.3594 26.1641 67.4766 24.849 67.7109 23.5469C67.9714 22.2188 68.1016 20.8776 68.1016 19.5234V19.1328C67.5807 19.263 67.0599 19.4453 66.5391 19.6797C66.0443 19.9141 65.5365 20.0964 65.0156 20.2266C64.8333 20.2786 64.7292 20.3698 64.7031 20.5C64.6771 20.6302 64.599 20.7344 64.4688 20.8125C64.2083 20.8385 63.9609 20.8646 63.7266 20.8906C63.4922 20.8906 63.2708 20.8906 63.0625 20.8906C62.6198 20.8906 62.151 20.8776 61.6562 20.8516C61.1875 20.7995 60.7188 20.7083 60.25 20.5781C59.7812 20.4479 59.3385 20.2656 58.9219 20.0312C58.5312 19.7969 58.1797 19.4974 57.8672 19.1328C57.8151 19.1589 57.75 19.1849 57.6719 19.2109C57.5938 19.237 57.5156 19.25 57.4375 19.25C57.3594 19.25 57.2812 19.237 57.2031 19.2109C57.125 19.1849 57.0599 19.1589 57.0078 19.1328C56.7995 18.8464 56.6302 18.5339 56.5 18.1953L56.1094 17.1797C55.9792 16.8411 55.8359 16.5156 55.6797 16.2031C55.5234 15.8906 55.3151 15.6042 55.0547 15.3438C54.9766 14.875 54.9375 14.4193 54.9375 13.9766C54.9375 13.5078 54.9766 13.0521 55.0547 12.6094C55.1068 12.1667 55.1979 11.724 55.3281 11.2812C55.224 10.9688 55.1589 10.6432 55.1328 10.3047C55.0807 9.96615 55.0547 9.6276 55.0547 9.28906C55.0547 8.89844 55.0938 8.49479 55.1719 8.07812C55.25 7.66146 55.3802 7.28385 55.5625 6.94531C55.7448 6.58073 56.0052 6.28125 56.3438 6.04688C56.6562 5.8125 57.0469 5.69531 57.5156 5.69531C58.0365 5.69531 58.5182 5.83854 58.9609 6.125C59.4036 6.38542 59.8333 6.65885 60.25 6.94531C60.3021 7.25781 60.3411 7.57031 60.3672 7.88281C60.3932 8.16927 60.4062 8.48177 60.4062 8.82031C60.4062 9.44531 60.3672 10.0833 60.2891 10.7344C60.237 11.3594 60.2109 11.9974 60.2109 12.6484C60.2109 13.3255 60.2891 13.9635 60.4453 14.5625C60.6276 15.1354 60.9401 15.6823 61.3828 16.2031H61.5391C61.7474 16.1771 61.9297 16.2161 62.0859 16.3203C62.2422 16.4245 62.4245 16.4766 62.6328 16.4766C62.8151 16.4766 62.9583 16.4115 63.0625 16.2812C63.1667 16.125 63.2969 16.0469 63.4531 16.0469C63.6094 16.0469 63.7266 16.0729 63.8047 16.125C63.8828 16.1771 63.9479 16.2031 64 16.2031C64.2865 16.2031 64.612 16.099 64.9766 15.8906C65.3411 15.6823 65.5755 15.4479 65.6797 15.1875C65.7839 15.2656 65.9141 15.3047 66.0703 15.3047C66.2786 15.3047 66.474 15.2396 66.6562 15.1094C66.8385 14.9792 67.0729 14.9141 67.3594 14.9141C67.5156 14.9141 67.5677 14.8229 67.5156 14.6406C67.4896 14.4323 67.5417 14.3021 67.6719 14.25C67.9844 14.1198 68.3229 13.9375 68.6875 13.7031C69.0781 13.4427 69.3906 13.2865 69.625 13.2344C69.7552 12.8958 69.9115 12.5833 70.0938 12.2969C70.3021 11.9844 70.5104 11.6979 70.7188 11.4375C70.7969 10.8385 70.9531 10.2656 71.1875 9.71875C71.4219 9.17188 71.6693 8.625 71.9297 8.07812C72.1901 7.53125 72.4375 6.98438 72.6719 6.4375C72.9062 5.89062 73.0625 5.31771 73.1406 4.71875C73.4271 4.43229 73.6484 4.11979 73.8047 3.78125C73.987 3.44271 74.1432 3.10417 74.2734 2.76562C74.5339 2.6875 74.8594 2.64844 75.25 2.64844C75.6406 2.6224 75.9792 2.60938 76.2656 2.60938H76.9297C77.0078 2.76562 77.112 2.90885 77.2422 3.03906L77.6328 3.42969C77.3984 3.79427 77.2812 4.15885 77.2812 4.52344C77.2812 4.8099 77.3464 5.09635 77.4766 5.38281C77.6068 5.64323 77.75 5.89062 77.9062 6.125ZM103.336 10.3828C103.18 10.6172 103.089 10.8776 103.062 11.1641C103.036 11.4505 103.023 11.7109 103.023 11.9453C103.023 12.2578 103.023 12.5703 103.023 12.8828C103.049 13.1693 103.062 13.4557 103.062 13.7422V14.3281C103.01 14.5104 102.932 14.6927 102.828 14.875C102.724 15.0573 102.646 15.2396 102.594 15.4219C102.229 16.3854 102.047 17.349 102.047 18.3125V18.3906C101.917 18.7031 101.786 18.9896 101.656 19.25C101.552 19.5104 101.448 19.7708 101.344 20.0312C101.24 20.2656 101.161 20.526 101.109 20.8125C101.057 21.0729 101.044 21.3854 101.07 21.75C100.706 22.6615 100.224 23.4948 99.625 24.25C99.026 24.9792 98.4401 25.7344 97.8672 26.5156C97.3203 26.724 96.8125 26.9974 96.3438 27.3359C95.901 27.6745 95.4714 28.0521 95.0547 28.4688C94.2474 28.7292 93.4531 29.0286 92.6719 29.3672C91.8906 29.7057 91.1875 30.1615 90.5625 30.7344C90.0677 30.7865 89.5729 30.8646 89.0781 30.9688C88.5833 31.0729 88.1016 31.2292 87.6328 31.4375H87.1641C86.9297 31.4375 86.7604 31.3854 86.6562 31.2812C86.3177 31.4635 85.9661 31.5938 85.6016 31.6719C85.237 31.724 84.8724 31.75 84.5078 31.75C84.0391 31.75 83.5703 31.724 83.1016 31.6719C82.6589 31.5938 82.2031 31.5156 81.7344 31.4375C81.474 31.0729 81.1094 30.7995 80.6406 30.6172C80.1719 30.4089 79.7552 30.2135 79.3906 30.0312C78.6354 28.9896 78.0885 27.987 77.75 27.0234C77.4115 26.0339 77.0599 24.9271 76.6953 23.7031C76.7474 23.3385 76.8385 22.987 76.9688 22.6484C77.099 22.2839 77.151 21.8932 77.125 21.4766C77.5938 20.1224 78.2057 18.8984 78.9609 17.8047C79.7422 16.6849 80.6276 15.6172 81.6172 14.6016C81.6172 14.4453 81.6432 14.3151 81.6953 14.2109C81.7734 14.1068 81.7865 13.9505 81.7344 13.7422C81.7604 13.7682 81.8125 13.7812 81.8906 13.7812C82.099 13.7812 82.2292 13.7292 82.2812 13.625C82.3333 13.4948 82.3464 13.3516 82.3203 13.1953C83.2578 12.5964 84.1042 11.9062 84.8594 11.125C85.6406 10.3438 86.526 9.69271 87.5156 9.17188C87.5938 8.9375 87.724 8.74219 87.9062 8.58594C88.0885 8.42969 88.2318 8.2474 88.3359 8.03906C89.1693 7.80469 89.9245 7.45312 90.6016 6.98438C91.2786 6.51562 91.9948 6.09896 92.75 5.73438C93.1667 5.5 93.5573 5.34375 93.9219 5.26562C94.3125 5.16146 94.7292 5.05729 95.1719 4.95312C95.3281 4.90104 95.4714 4.86198 95.6016 4.83594C95.7318 4.8099 95.875 4.79688 96.0312 4.79688C96.5 4.79688 96.9557 4.88802 97.3984 5.07031C97.8411 5.22656 98.2969 5.30469 98.7656 5.30469C98.8958 5.30469 99 5.30469 99.0781 5.30469C99.1823 5.27865 99.2865 5.2526 99.3906 5.22656C99.8333 5.77344 100.393 6.1901 101.07 6.47656C101.227 6.86719 101.409 7.20573 101.617 7.49219C101.852 7.77865 102.086 8.0651 102.32 8.35156C102.555 8.61198 102.763 8.91146 102.945 9.25C103.154 9.5625 103.284 9.9401 103.336 10.3828ZM99.4297 12.4141C99.4297 12.2839 99.4167 12.1667 99.3906 12.0625C99.1302 11.9844 98.8828 11.8802 98.6484 11.75C98.4141 11.6198 98.1536 11.5547 97.8672 11.5547C97.6849 11.5547 97.5026 11.5938 97.3203 11.6719C97.2943 11.4896 97.2161 11.3594 97.0859 11.2812C96.9818 11.2031 96.8516 11.138 96.6953 11.0859C96.5651 11.0078 96.4219 10.9557 96.2656 10.9297C96.1354 10.8776 96.0182 10.7995 95.9141 10.6953C95.8359 10.487 95.7448 10.2786 95.6406 10.0703C95.5625 9.83594 95.4062 9.66667 95.1719 9.5625C94.9375 9.79688 94.6641 9.99219 94.3516 10.1484C94.0391 10.2786 93.7135 10.4089 93.375 10.5391C93.0625 10.6693 92.75 10.8255 92.4375 11.0078C92.151 11.1901 91.9036 11.4115 91.6953 11.6719H90.9922C90.8359 11.9583 90.6146 12.1797 90.3281 12.3359C90.0417 12.4661 89.7943 12.6615 89.5859 12.9219C89.1693 13.1302 88.7786 13.3906 88.4141 13.7031C88.0755 13.9896 87.737 14.3021 87.3984 14.6406C87.0599 14.9531 86.7214 15.2786 86.3828 15.6172C86.0703 15.9557 85.7318 16.2682 85.3672 16.5547C85.0286 17.2839 84.651 17.9219 84.2344 18.4688C83.8438 18.9896 83.4661 19.5234 83.1016 20.0703C82.763 20.6172 82.4635 21.2161 82.2031 21.8672C81.9688 22.4922 81.8516 23.2734 81.8516 24.2109V24.6016C81.8516 24.7318 81.8646 24.862 81.8906 24.9922C82.2292 25.3568 82.5026 25.7474 82.7109 26.1641C82.9453 26.5807 83.3229 26.8802 83.8438 27.0625C84.3646 27.2708 84.9115 27.362 85.4844 27.3359C86.0833 27.3099 86.6562 27.375 87.2031 27.5312C88.4531 27.2969 89.651 26.9193 90.7969 26.3984C91.9688 25.8516 93.0755 25.2005 94.1172 24.4453C94.2734 24.3151 94.4557 24.1849 94.6641 24.0547C94.8724 23.8984 95.0417 23.7422 95.1719 23.5859C95.3021 23.4557 95.4062 23.3125 95.4844 23.1562C95.5885 23 95.6927 22.8568 95.7969 22.7266C96.0052 22.388 96.2396 22.0495 96.5 21.7109C96.7604 21.3724 97.0339 21.0599 97.3203 20.7734C97.4505 20.2005 97.6198 19.6536 97.8281 19.1328C98.0365 18.5859 98.2448 18.0521 98.4531 17.5312C98.6615 17.0104 98.8307 16.4766 98.9609 15.9297C99.1172 15.3828 99.1953 14.8099 99.1953 14.2109C99.1953 14.0807 99.1823 13.9375 99.1562 13.7812C99.1562 13.625 99.1432 13.4818 99.1172 13.3516C99.3255 13.0651 99.4297 12.7526 99.4297 12.4141ZM130.367 26.6719C130.263 27.0625 130.094 27.388 129.859 27.6484C129.625 27.9089 129.352 28.1432 129.039 28.3516C128.753 28.5599 128.44 28.7552 128.102 28.9375C127.763 29.0938 127.438 29.276 127.125 29.4844H126.617C125.523 29.4844 124.677 29.224 124.078 28.7031C123.505 28.1562 123.062 27.4922 122.75 26.7109C122.438 25.9036 122.203 25.0443 122.047 24.1328C121.917 23.2214 121.747 22.388 121.539 21.6328C121.227 21.8932 120.966 22.2057 120.758 22.5703C120.549 22.9089 120.328 23.2474 120.094 23.5859C119.885 23.9245 119.638 24.237 119.352 24.5234C119.091 24.8099 118.74 25.0052 118.297 25.1094C118.219 25.2917 118.128 25.474 118.023 25.6562C117.945 25.8385 117.893 26.0339 117.867 26.2422C117.294 26.5547 116.773 26.9193 116.305 27.3359C115.836 27.7526 115.367 28.1823 114.898 28.625C114.43 29.0677 113.948 29.4974 113.453 29.9141C112.984 30.3047 112.451 30.6302 111.852 30.8906C111.826 30.8646 111.773 30.8516 111.695 30.8516C111.383 30.8516 111.096 30.9297 110.836 31.0859C110.576 31.2161 110.289 31.2812 109.977 31.2812C109.768 31.2812 109.573 31.2422 109.391 31.1641C109.234 31.0859 109.065 30.9948 108.883 30.8906C108.727 30.7865 108.557 30.7083 108.375 30.6562C108.193 30.6042 107.997 30.5911 107.789 30.6172C107.529 30.1484 107.177 29.7188 106.734 29.3281C106.318 28.9115 106.057 28.4427 105.953 27.9219C105.901 27.6875 105.862 27.4531 105.836 27.2188C105.836 26.9583 105.81 26.6979 105.758 26.4375C105.68 26.0469 105.576 25.6562 105.445 25.2656C105.315 24.849 105.211 24.4323 105.133 24.0156C105.263 23.3125 105.393 22.5443 105.523 21.7109C105.628 20.8516 105.758 20.0052 105.914 19.1719C106.096 18.3125 106.331 17.5052 106.617 16.75C106.93 15.9688 107.32 15.3047 107.789 14.7578L107.75 14.4844C107.75 14.0677 107.828 13.6771 107.984 13.3125C108.141 12.9479 108.31 12.5964 108.492 12.2578C108.674 11.9193 108.831 11.5807 108.961 11.2422C109.091 10.9036 109.117 10.526 109.039 10.1094C109.352 9.95312 109.677 9.82292 110.016 9.71875C110.354 9.61458 110.706 9.5625 111.07 9.5625C111.409 9.5625 111.721 9.61458 112.008 9.71875C111.956 9.92708 112.047 10.0573 112.281 10.1094V10.2266C112.281 10.7734 112.216 11.3073 112.086 11.8281C111.956 12.349 111.799 12.8698 111.617 13.3906C111.435 13.8854 111.253 14.3932 111.07 14.9141C110.914 15.4089 110.797 15.9167 110.719 16.4375C110.615 16.4635 110.536 16.5156 110.484 16.5938C110.458 16.6719 110.432 16.75 110.406 16.8281C110.38 16.9062 110.341 16.9714 110.289 17.0234C110.237 17.0755 110.159 17.1016 110.055 17.1016C109.898 18.013 109.729 18.9245 109.547 19.8359C109.391 20.7214 109.312 21.6198 109.312 22.5312C109.312 23.0781 109.365 23.638 109.469 24.2109C109.573 24.7839 109.768 25.3307 110.055 25.8516L110.211 25.8125C110.497 25.8125 110.719 25.8776 110.875 26.0078C111.057 26.138 111.292 26.2682 111.578 26.3984C111.786 26.3464 111.982 26.2812 112.164 26.2031C112.346 26.099 112.424 25.9297 112.398 25.6953C112.737 25.6693 113.023 25.5911 113.258 25.4609C113.492 25.3047 113.701 25.1354 113.883 24.9531L114.469 24.4062C114.677 24.224 114.924 24.0938 115.211 24.0156C115.211 23.8594 115.25 23.7422 115.328 23.6641L115.562 23.4297C115.641 23.3516 115.693 23.2734 115.719 23.1953C115.771 23.0911 115.784 22.9479 115.758 22.7656C116.07 22.7396 116.305 22.6615 116.461 22.5312C116.643 22.401 116.799 22.2578 116.93 22.1016C117.086 21.9193 117.229 21.737 117.359 21.5547C117.49 21.3724 117.659 21.2161 117.867 21.0859C118.049 20.6953 118.297 20.1745 118.609 19.5234C118.948 18.8724 119.273 18.1953 119.586 17.4922C119.924 16.7891 120.211 16.125 120.445 15.5C120.706 14.849 120.836 14.3542 120.836 14.0156C120.836 13.8854 120.797 13.7682 120.719 13.6641C120.667 13.5599 120.654 13.4427 120.68 13.3125V13.1953C120.888 12.9349 121.07 12.6484 121.227 12.3359C121.409 12.0234 121.591 11.724 121.773 11.4375C121.982 11.151 122.203 10.8906 122.438 10.6562C122.672 10.4219 122.971 10.2396 123.336 10.1094C123.753 10.2396 124.169 10.3307 124.586 10.3828C125.029 10.4349 125.445 10.5391 125.836 10.6953C125.862 11.3464 125.927 12.1016 126.031 12.9609C126.135 13.8203 126.318 14.5495 126.578 15.1484C126.578 15.487 126.565 15.8125 126.539 16.125C126.539 16.4375 126.539 16.75 126.539 17.0625C126.539 17.5833 126.552 18.1172 126.578 18.6641C126.63 19.2109 126.721 19.7188 126.852 20.1875C126.669 20.5781 126.578 20.9948 126.578 21.4375C126.578 22.0365 126.669 22.6094 126.852 23.1562C127.034 23.6771 127.164 24.237 127.242 24.8359C127.581 25.3047 128.023 25.5391 128.57 25.5391C128.701 25.5391 128.805 25.526 128.883 25.5C128.987 25.474 129.091 25.4349 129.195 25.3828C129.404 25.6172 129.586 25.8516 129.742 26.0859C129.924 26.2943 130.133 26.4896 130.367 26.6719ZM169.352 22.9609C169.352 23.2474 169.247 23.4688 169.039 23.625C168.831 23.7552 168.727 23.9375 168.727 24.1719C168.727 24.276 168.779 24.4062 168.883 24.5625C168.518 24.5625 168.271 24.6797 168.141 24.9141C168.01 25.1484 167.88 25.4089 167.75 25.6953H167.242C167.112 25.6953 167.008 25.7214 166.93 25.7734C166.852 25.8255 166.773 25.9036 166.695 26.0078C166.643 26.0859 166.565 26.2161 166.461 26.3984C165.966 26.5026 165.484 26.6719 165.016 26.9062C164.573 27.1146 164.13 27.349 163.688 27.6094C163.271 27.8438 162.841 28.0911 162.398 28.3516C161.956 28.5859 161.5 28.7812 161.031 28.9375C160.797 29.3281 160.458 29.6406 160.016 29.875H159.898C159.768 29.901 159.651 29.888 159.547 29.8359C159.469 29.7578 159.365 29.7188 159.234 29.7188C159.156 29.7188 159.104 29.7318 159.078 29.7578C158.297 30.2786 157.424 30.5391 156.461 30.5391C156.201 30.5391 155.953 30.526 155.719 30.5C155.484 30.4479 155.237 30.4219 154.977 30.4219C154.898 30.4219 154.846 30.4479 154.82 30.5L154.742 30.6562C154.716 30.7083 154.677 30.7604 154.625 30.8125C154.599 30.8646 154.508 30.8906 154.352 30.8906C154.065 30.8906 153.779 30.8516 153.492 30.7734C153.206 30.6953 152.906 30.6823 152.594 30.7344C151.995 30.3958 151.526 30.0703 151.188 29.7578C150.849 29.4453 150.536 28.9766 150.25 28.3516C150.12 28.0651 149.938 27.7917 149.703 27.5312C149.495 27.2708 149.339 26.9844 149.234 26.6719C149.208 26.5677 149.169 26.3854 149.117 26.125C149.065 25.8385 149.013 25.5391 148.961 25.2266C148.909 24.9141 148.857 24.6146 148.805 24.3281C148.779 24.0417 148.766 23.8464 148.766 23.7422C148.766 23.4297 148.779 23.1302 148.805 22.8438C148.857 22.5312 148.909 22.2188 148.961 21.9062C149.117 20.9167 149.221 19.9271 149.273 18.9375C149.352 17.9219 149.573 16.9453 149.938 16.0078C149.885 15.7214 149.859 15.4479 149.859 15.1875V14.3281C149.859 13.8333 149.794 13.4167 149.664 13.0781C149.872 12.7396 149.977 12.362 149.977 11.9453C149.977 11.4766 149.781 11.2031 149.391 11.125V11.0078C149.391 10.4609 149.208 10.0312 148.844 9.71875C148.844 8.80729 149.065 8.13021 149.508 7.6875C149.977 7.21875 150.589 6.8151 151.344 6.47656C151.448 6.32031 151.487 6.1901 151.461 6.08594C151.643 6.13802 151.812 6.1901 151.969 6.24219C152.125 6.29427 152.281 6.32031 152.438 6.32031C152.698 6.32031 152.932 6.28125 153.141 6.20312C153.219 6.51562 153.414 6.71094 153.727 6.78906C154.065 6.84115 154.339 6.91927 154.547 7.02344V7.53125C154.547 8.33854 154.742 9.10677 155.133 9.83594C155.029 10.0443 154.964 10.2656 154.938 10.5C154.911 10.7344 154.898 10.9557 154.898 11.1641C154.898 11.4766 154.911 11.7891 154.938 12.1016C154.964 12.4141 154.977 12.7135 154.977 13C154.977 13.3125 154.938 13.625 154.859 13.9375C154.807 14.25 154.664 14.5234 154.43 14.7578C154.404 15.0964 154.378 15.487 154.352 15.9297C154.352 16.3464 154.326 16.776 154.273 17.2188C154.247 17.6615 154.182 18.0911 154.078 18.5078C153.974 18.9245 153.818 19.263 153.609 19.5234C153.583 19.9141 153.557 20.3177 153.531 20.7344C153.531 21.125 153.531 21.5026 153.531 21.8672C153.531 22.4401 153.557 23.1172 153.609 23.8984C153.688 24.6797 153.87 25.3307 154.156 25.8516C154.286 26.0599 154.534 26.2161 154.898 26.3203C155.289 26.4245 155.602 26.4766 155.836 26.4766C156.122 26.4766 156.409 26.4375 156.695 26.3594C157.008 26.2552 157.229 26.0859 157.359 25.8516C157.516 25.8776 157.62 25.9557 157.672 26.0859C157.724 26.2161 157.815 26.3203 157.945 26.3984C159.43 25.7734 160.914 25.1745 162.398 24.6016C163.883 24.0286 165.341 23.3646 166.773 22.6094C166.982 22.7135 167.203 22.7656 167.438 22.7656C167.698 22.7656 167.958 22.7396 168.219 22.6875C168.479 22.6354 168.74 22.6094 169 22.6094H169.273C169.326 22.7656 169.352 22.8828 169.352 22.9609ZM177.516 27.6484C177.385 27.8568 177.229 28.0521 177.047 28.2344C176.865 28.3906 176.695 28.5599 176.539 28.7422C176.357 28.8203 176.148 28.8594 175.914 28.8594C175.706 28.8594 175.497 28.8594 175.289 28.8594C175.107 28.8333 174.924 28.8333 174.742 28.8594C174.586 28.8594 174.456 28.9115 174.352 29.0156C174.143 28.9635 173.987 28.8724 173.883 28.7422C173.779 28.5859 173.596 28.4948 173.336 28.4688C173.232 28.4427 173.128 28.4427 173.023 28.4688C172.633 28.026 172.268 27.5573 171.93 27.0625C171.617 26.5677 171.318 26.099 171.031 25.6562C171.005 24.6927 170.927 23.7161 170.797 22.7266C170.771 22.4922 170.732 22.2578 170.68 22.0234C170.628 21.7891 170.589 21.5677 170.562 21.3594C170.562 21.099 170.576 20.8516 170.602 20.6172C170.654 20.3568 170.693 20.1224 170.719 19.9141C170.823 19.1589 170.94 18.4167 171.07 17.6875C171.201 16.9583 171.318 16.2161 171.422 15.4609C171.526 14.7839 171.578 14.0807 171.578 13.3516C171.578 12.5964 171.461 11.8932 171.227 11.2422L171.188 11.0469C171.24 10.8385 171.292 10.6693 171.344 10.5391C171.422 10.3828 171.474 10.2135 171.5 10.0312C171.552 9.74479 171.487 9.53646 171.305 9.40625C171.383 9.19792 171.513 9.06771 171.695 9.01562C171.878 8.9375 171.982 8.78125 172.008 8.54688C172.034 8.44271 172.034 8.33854 172.008 8.23438C172.216 8.15625 172.424 8.09115 172.633 8.03906C172.867 7.96094 173.089 7.94792 173.297 8C173.635 8.05208 173.935 8.16927 174.195 8.35156C174.456 8.50781 174.703 8.6901 174.938 8.89844C175.354 10.1484 175.523 11.4766 175.445 12.8828C175.367 14.263 175.237 15.6562 175.055 17.0625C174.872 18.4688 174.755 19.849 174.703 21.2031C174.651 22.5312 174.859 23.7682 175.328 24.9141L175.406 24.9531C175.536 24.9792 175.641 24.9401 175.719 24.8359C175.797 24.7057 175.901 24.6536 176.031 24.6797C176.135 24.7318 176.201 24.7578 176.227 24.7578C176.331 25.2786 176.5 25.7734 176.734 26.2422C176.969 26.7109 177.229 27.1797 177.516 27.6484ZM212.125 31.0078C212.125 31.2161 212.034 31.3854 211.852 31.5156C211.669 31.6458 211.461 31.776 211.227 31.9062L210.523 32.2578C210.289 32.362 210.133 32.5052 210.055 32.6875C209.768 32.6094 209.482 32.5573 209.195 32.5312C208.935 32.5052 208.674 32.4922 208.414 32.4922C208.076 32.4922 207.724 32.5312 207.359 32.6094C206.995 32.6615 206.708 32.8307 206.5 33.1172C206.37 33.0651 206.253 33.0391 206.148 33.0391H205.836C205.445 33.0391 205.042 33.0651 204.625 33.1172C204.234 33.1953 203.844 33.2344 203.453 33.2344C203.245 33.2344 203.036 33.2214 202.828 33.1953C202.646 33.1693 202.477 33.0911 202.32 32.9609C202.086 33.0391 201.839 33.0781 201.578 33.0781C201.24 33.0781 200.914 33.026 200.602 32.9219C200.289 32.8177 199.977 32.7005 199.664 32.5703C199.378 32.4141 199.078 32.2708 198.766 32.1406C198.453 32.0104 198.141 31.9062 197.828 31.8281L197.555 31.2812C197.138 31.2031 196.747 31.0859 196.383 30.9297C196.044 30.7474 195.706 30.5521 195.367 30.3438C195.029 30.1354 194.69 29.9401 194.352 29.7578C194.039 29.5495 193.714 29.4062 193.375 29.3281C193.245 29.224 193.128 29.1328 193.023 29.0547C192.919 28.9505 192.841 28.8073 192.789 28.625C192.451 28.5469 192.138 28.4427 191.852 28.3125L191.031 27.8828C190.771 27.7266 190.471 27.5964 190.133 27.4922C189.82 27.362 189.443 27.2839 189 27.2578C188.844 27.0234 188.622 26.8021 188.336 26.5938C188.049 26.3854 187.763 26.2812 187.477 26.2812C187.294 26.2812 187.151 26.3203 187.047 26.3984V26.5938C187.047 26.9062 187.138 27.2188 187.32 27.5312C187.503 27.8438 187.737 28.0651 188.023 28.1953C187.997 28.2474 187.984 28.3255 187.984 28.4297C187.984 28.5859 188.01 28.7422 188.062 28.8984C188.141 29.0547 188.271 29.1589 188.453 29.2109C188.349 29.4974 188.219 29.7969 188.062 30.1094C187.906 30.3958 187.711 30.6693 187.477 30.9297C187.242 31.1901 186.982 31.4115 186.695 31.5938C186.435 31.75 186.135 31.8281 185.797 31.8281C185.693 31.8802 185.615 31.9583 185.562 32.0625C185.536 32.1667 185.51 32.2839 185.484 32.4141C185.484 32.5182 185.458 32.6224 185.406 32.7266C185.38 32.8307 185.328 32.9089 185.25 32.9609C185.146 32.987 185.003 33 184.82 33C184.56 33 184.339 32.9609 184.156 32.8828C183.974 32.8047 183.779 32.7005 183.57 32.5703V32.4141C183.57 32.1016 183.505 31.8542 183.375 31.6719C183.271 31.4896 183.141 31.3203 182.984 31.1641C182.854 30.9818 182.724 30.7995 182.594 30.6172C182.49 30.4349 182.438 30.1875 182.438 29.875C182.359 29.9271 182.268 29.9661 182.164 29.9922C182.086 30.0182 182.034 30.0703 182.008 30.1484C181.956 29.888 181.93 29.6667 181.93 29.4844C181.93 28.9635 182.008 28.4688 182.164 28C182.346 27.5312 182.438 27.0365 182.438 26.5156V25.9297C182.438 25.3307 182.424 24.7448 182.398 24.1719C182.372 23.599 182.359 23.026 182.359 22.4531C182.359 21.9583 182.372 21.4766 182.398 21.0078C182.424 20.513 182.477 20.0182 182.555 19.5234C182.841 17.8047 183.076 16.099 183.258 14.4062C183.466 12.6875 183.792 10.9818 184.234 9.28906C184.208 9.15885 184.169 9.02865 184.117 8.89844C184.091 8.76823 184.078 8.63802 184.078 8.50781C184.078 8.40365 184.091 8.33854 184.117 8.3125C184.221 7.79167 184.456 7.36198 184.82 7.02344C185.185 6.65885 185.654 6.47656 186.227 6.47656H186.344C186.656 6.60677 186.891 6.80208 187.047 7.0625C187.229 7.29688 187.503 7.38802 187.867 7.33594C187.867 7.38802 187.854 7.4401 187.828 7.49219C187.828 7.54427 187.828 7.59635 187.828 7.64844C187.828 7.9349 187.906 8.14323 188.062 8.27344C188.219 8.40365 188.401 8.54688 188.609 8.70312C188.479 8.96354 188.388 9.26302 188.336 9.60156C188.31 9.9401 188.284 10.2786 188.258 10.6172C188.232 10.9557 188.18 11.2812 188.102 11.5938C188.049 11.9062 187.932 12.1667 187.75 12.375C187.854 12.6354 187.919 12.8958 187.945 13.1562C187.971 13.4167 187.984 13.6901 187.984 13.9766C187.984 14.263 187.971 14.5625 187.945 14.875C187.919 15.1615 187.906 15.4609 187.906 15.7734C187.906 16.0599 187.945 16.3203 188.023 16.5547C188.596 16.5547 188.922 16.2812 189 15.7344C189.677 15.5521 190.276 15.3047 190.797 14.9922C191.344 14.6536 191.865 14.3021 192.359 13.9375C192.854 13.5729 193.336 13.1953 193.805 12.8047C194.299 12.4141 194.846 12.0755 195.445 11.7891V11.7109C195.445 11.5807 195.484 11.5026 195.562 11.4766C195.641 11.4245 195.654 11.3073 195.602 11.125C195.992 10.9948 196.318 10.8255 196.578 10.6172C196.865 10.3828 197.125 10.1354 197.359 9.875L198.102 9.05469C198.362 8.76823 198.648 8.52083 198.961 8.3125C199.169 7.86979 199.352 7.40104 199.508 6.90625C199.69 6.41146 199.924 5.95573 200.211 5.53906C200.706 5.53906 201.24 5.57812 201.812 5.65625C202.411 5.73438 202.919 5.91667 203.336 6.20312C203.284 6.41146 203.375 6.55469 203.609 6.63281C203.323 7.72656 202.893 8.71615 202.32 9.60156C201.747 10.4609 201.005 11.1901 200.094 11.7891C199.964 12.0755 199.794 12.3229 199.586 12.5312C199.378 12.7396 199.169 12.9479 198.961 13.1562C198.753 13.3385 198.544 13.5339 198.336 13.7422C198.128 13.9505 197.958 14.1979 197.828 14.4844C197.516 14.5365 197.242 14.6276 197.008 14.7578C196.799 14.888 196.591 15.0443 196.383 15.2266C196.201 15.3828 195.992 15.5391 195.758 15.6953C195.549 15.8255 195.315 15.9297 195.055 16.0078C194.846 16.2682 194.599 16.4896 194.312 16.6719C194.052 16.8542 193.779 17.0365 193.492 17.2188C193.232 17.375 192.984 17.5573 192.75 17.7656C192.516 17.9479 192.346 18.1953 192.242 18.5078H191.227C190.94 19.0026 190.562 19.4193 190.094 19.7578C189.651 20.0703 189.195 20.3698 188.727 20.6562C188.805 20.9688 188.948 21.2292 189.156 21.4375C189.365 21.6198 189.586 21.7891 189.82 21.9453C190.081 22.1016 190.328 22.2708 190.562 22.4531C190.823 22.6094 191.044 22.8047 191.227 23.0391C192.32 23.4557 193.375 23.9375 194.391 24.4844C195.406 25.0052 196.37 25.6432 197.281 26.3984C197.333 26.3724 197.398 26.3594 197.477 26.3594C197.685 26.3594 197.854 26.4245 197.984 26.5547C198.115 26.6589 198.297 26.6979 198.531 26.6719C198.635 26.9323 198.779 27.1146 198.961 27.2188C199.143 27.2969 199.326 27.362 199.508 27.4141C199.716 27.4661 199.911 27.5443 200.094 27.6484C200.276 27.7526 200.406 27.9349 200.484 28.1953C200.875 28.2214 201.227 28.2995 201.539 28.4297C201.878 28.5599 202.177 28.7682 202.438 29.0547H202.906C203.74 29.0547 204.547 29.1328 205.328 29.2891C206.109 29.4453 206.904 29.5234 207.711 29.5234C208.128 29.5234 208.531 29.4974 208.922 29.4453C209.312 29.3672 209.69 29.237 210.055 29.0547C210.185 29.1328 210.328 29.2109 210.484 29.2891C210.641 29.3672 210.81 29.4062 210.992 29.4062C211.122 29.4062 211.318 29.3802 211.578 29.3281C211.604 29.6146 211.695 29.888 211.852 30.1484C212.034 30.4089 212.125 30.6953 212.125 31.0078ZM230.953 8.15625V8.3125C230.771 8.36458 230.68 8.49479 230.68 8.70312C230.393 8.83333 230.094 8.9375 229.781 9.01562C229.469 9.06771 229.169 9.15885 228.883 9.28906C228.596 9.26302 228.297 9.25 227.984 9.25C227.698 9.22396 227.411 9.21094 227.125 9.21094C226.344 9.21094 225.562 9.23698 224.781 9.28906C224 9.34115 223.219 9.34115 222.438 9.28906C222.073 9.4974 221.669 9.66667 221.227 9.79688C220.81 9.90104 220.406 9.95312 220.016 9.95312C219.703 9.95312 219.43 9.91406 219.195 9.83594C218.57 10.1484 217.88 10.4089 217.125 10.6172C216.396 10.8255 215.654 11.0339 214.898 11.2422C214.143 11.4245 213.414 11.6458 212.711 11.9062C212.034 12.1406 211.435 12.4792 210.914 12.9219C210.862 13.2865 210.823 13.651 210.797 14.0156C210.771 14.3542 210.758 14.6927 210.758 15.0312C210.758 15.3958 210.771 15.7344 210.797 16.0469C210.849 16.3594 210.94 16.6719 211.07 16.9844C211.201 17.0365 211.344 17.0755 211.5 17.1016C211.682 17.1276 211.839 17.1406 211.969 17.1406C212.099 17.1406 212.229 17.1276 212.359 17.1016C212.49 17.0495 212.581 16.9583 212.633 16.8281C213.023 16.776 213.414 16.763 213.805 16.7891C214.195 16.7891 214.586 16.7891 214.977 16.7891C215.367 16.7891 215.745 16.776 216.109 16.75C216.5 16.724 216.878 16.6589 217.242 16.5547C217.659 16.4505 218.062 16.3854 218.453 16.3594C218.87 16.3333 219.273 16.3073 219.664 16.2812C220.055 16.2552 220.458 16.2161 220.875 16.1641C221.292 16.0859 221.721 15.9427 222.164 15.7344C222.503 15.8646 222.841 15.9297 223.18 15.9297C223.544 15.9297 223.896 15.9557 224.234 16.0078C224.417 16.138 224.56 16.2812 224.664 16.4375C224.794 16.5938 224.859 16.776 224.859 16.9844C224.859 17.349 224.729 17.7135 224.469 18.0781C224.208 18.4427 224 18.7812 223.844 19.0938H223.414C222.789 19.0938 222.177 19.1849 221.578 19.3672C221.005 19.5234 220.419 19.7188 219.82 19.9531C219.247 20.1615 218.661 20.3568 218.062 20.5391C217.49 20.6953 216.891 20.7734 216.266 20.7734C216.161 20.7734 216.096 20.8385 216.07 20.9688C216.07 21.0729 216.044 21.151 215.992 21.2031C215.862 21.1771 215.667 21.1641 215.406 21.1641C214.807 21.1641 214.234 21.2292 213.688 21.3594C213.141 21.4896 212.581 21.5547 212.008 21.5547C211.852 21.5547 211.695 21.5547 211.539 21.5547C211.383 21.5286 211.227 21.5026 211.07 21.4766C210.94 21.6849 210.771 21.8281 210.562 21.9062C210.354 21.9583 210.159 22.0625 209.977 22.2188C209.898 22.4531 209.846 22.7396 209.82 23.0781C209.82 23.4167 209.807 23.7682 209.781 24.1328C209.781 24.4714 209.755 24.7969 209.703 25.1094C209.651 25.4219 209.547 25.6693 209.391 25.8516C209.417 25.9818 209.521 26.0339 209.703 26.0078C209.885 25.9557 209.977 26.0339 209.977 26.2422C209.977 26.4766 209.951 26.724 209.898 26.9844C209.846 27.2448 209.82 27.5052 209.82 27.7656C209.82 28.2604 209.872 28.8073 209.977 29.4062C210.107 29.9792 210.289 30.513 210.523 31.0078C210.784 31.5026 211.122 31.9193 211.539 32.2578C211.956 32.5703 212.477 32.7266 213.102 32.7266C213.518 32.7266 213.909 32.6484 214.273 32.4922C214.638 32.3359 214.938 32.0755 215.172 31.7109L215.367 31.6719C215.471 31.6719 215.562 31.6849 215.641 31.7109C215.745 31.737 215.849 31.75 215.953 31.75C216.109 31.75 216.305 31.6589 216.539 31.4766C216.799 31.2682 217.073 31.0339 217.359 30.7734C217.672 30.513 217.984 30.2656 218.297 30.0312C218.609 29.7708 218.909 29.5885 219.195 29.4844C219.378 29.1198 219.547 28.7552 219.703 28.3906C219.885 28.026 220.146 27.7396 220.484 27.5312V26.3984C220.745 26.112 221.018 25.8516 221.305 25.6172C221.617 25.3828 221.852 25.0833 222.008 24.7188C222.138 24.7708 222.255 24.8099 222.359 24.8359C222.49 24.862 222.62 24.875 222.75 24.875C222.88 24.875 223.01 24.862 223.141 24.8359C223.297 24.8099 223.44 24.7708 223.57 24.7188C223.779 25.0052 223.935 25.3307 224.039 25.6953C224.169 26.0339 224.326 26.3594 224.508 26.6719C224.273 27.1406 224 27.7005 223.688 28.3516C223.375 29.0026 223.036 29.6536 222.672 30.3047C222.307 30.9557 221.917 31.5807 221.5 32.1797C221.109 32.7526 220.719 33.1953 220.328 33.5078C220.25 33.5859 220.081 33.6771 219.82 33.7812C219.534 33.9896 219.273 34.1849 219.039 34.3672C218.805 34.5755 218.583 34.8099 218.375 35.0703C217.62 35.3047 216.891 35.6172 216.188 36.0078C215.51 36.3984 214.833 36.776 214.156 37.1406C213.844 37.0625 213.505 37.0234 213.141 37.0234C212.828 37.0234 212.516 37.0365 212.203 37.0625C211.891 37.1146 211.552 37.1406 211.188 37.1406C211.083 37.0104 210.927 36.9193 210.719 36.8672C210.536 36.8411 210.471 36.7109 210.523 36.4766C209.638 36.4245 208.922 36.1771 208.375 35.7344C207.828 35.3177 207.359 34.7969 206.969 34.1719C206.604 33.5469 206.305 32.8698 206.07 32.1406C205.836 31.4115 205.589 30.7083 205.328 30.0312V29.9141C205.328 29.7839 205.38 29.7057 205.484 29.6797C205.589 29.6536 205.641 29.5755 205.641 29.4453C205.641 29.3932 205.628 29.3542 205.602 29.3281C205.523 29.0417 205.458 28.7943 205.406 28.5859C205.354 28.3776 205.328 28.1302 205.328 27.8438C205.328 27.4271 205.354 27.0234 205.406 26.6328C205.458 26.2161 205.484 25.7995 205.484 25.3828C205.484 24.9661 205.432 24.6016 205.328 24.2891C205.432 24.1589 205.523 23.9896 205.602 23.7812C205.654 23.5469 205.693 23.3125 205.719 23.0781C205.745 22.8438 205.758 22.6094 205.758 22.375C205.784 22.1406 205.823 21.9323 205.875 21.75C205.771 21.4635 205.68 21.2161 205.602 21.0078C205.523 20.7734 205.484 20.5 205.484 20.1875V19.9141C205.745 19.4714 205.966 19.0156 206.148 18.5469C206.331 18.0781 206.526 17.5964 206.734 17.1016V16.9844C206.734 16.2292 206.708 15.474 206.656 14.7188C206.604 13.9635 206.578 13.2083 206.578 12.4531V11.7109C206.578 11.4505 206.591 11.2031 206.617 10.9688C206.826 10.8646 206.982 10.7214 207.086 10.5391C207.19 10.3568 207.346 10.2135 207.555 10.1094H208.844L209.078 9.71875C209.156 9.58854 209.208 9.44531 209.234 9.28906C209.521 9.21094 209.794 9.10677 210.055 8.97656C210.341 8.82031 210.602 8.66406 210.836 8.50781C211.201 8.29948 211.526 8.11719 211.812 7.96094C212.125 7.77865 212.424 7.63542 212.711 7.53125C213.023 7.40104 213.349 7.29688 213.688 7.21875C214.026 7.14062 214.417 7.07552 214.859 7.02344C215.068 7.02344 215.198 6.98438 215.25 6.90625C215.328 6.82812 215.432 6.73698 215.562 6.63281C215.875 6.6849 216.188 6.73698 216.5 6.78906C216.812 6.8151 217.125 6.82812 217.438 6.82812C218.062 6.82812 218.648 6.71094 219.195 6.47656C219.977 6.47656 220.745 6.46354 221.5 6.4375C222.281 6.41146 223.062 6.39844 223.844 6.39844C224.521 6.39844 225.198 6.42448 225.875 6.47656C226.552 6.52865 227.216 6.61979 227.867 6.75C228.102 6.67188 228.362 6.63281 228.648 6.63281C228.961 6.63281 229.273 6.67188 229.586 6.75C229.924 6.80208 230.25 6.80208 230.562 6.75C230.589 7.03646 230.654 7.28385 230.758 7.49219C230.888 7.67448 230.953 7.89583 230.953 8.15625ZM253.922 27.6484C253.792 27.8568 253.635 28.0521 253.453 28.2344C253.271 28.3906 253.102 28.5599 252.945 28.7422C252.763 28.8203 252.555 28.8594 252.32 28.8594C252.112 28.8594 251.904 28.8594 251.695 28.8594C251.513 28.8333 251.331 28.8333 251.148 28.8594C250.992 28.8594 250.862 28.9115 250.758 29.0156C250.549 28.9635 250.393 28.8724 250.289 28.7422C250.185 28.5859 250.003 28.4948 249.742 28.4688C249.638 28.4427 249.534 28.4427 249.43 28.4688C249.039 28.026 248.674 27.5573 248.336 27.0625C248.023 26.5677 247.724 26.099 247.438 25.6562C247.411 24.6927 247.333 23.7161 247.203 22.7266C247.177 22.4922 247.138 22.2578 247.086 22.0234C247.034 21.7891 246.995 21.5677 246.969 21.3594C246.969 21.099 246.982 20.8516 247.008 20.6172C247.06 20.3568 247.099 20.1224 247.125 19.9141C247.229 19.1589 247.346 18.4167 247.477 17.6875C247.607 16.9583 247.724 16.2161 247.828 15.4609C247.932 14.7839 247.984 14.0807 247.984 13.3516C247.984 12.5964 247.867 11.8932 247.633 11.2422L247.594 11.0469C247.646 10.8385 247.698 10.6693 247.75 10.5391C247.828 10.3828 247.88 10.2135 247.906 10.0312C247.958 9.74479 247.893 9.53646 247.711 9.40625C247.789 9.19792 247.919 9.06771 248.102 9.01562C248.284 8.9375 248.388 8.78125 248.414 8.54688C248.44 8.44271 248.44 8.33854 248.414 8.23438C248.622 8.15625 248.831 8.09115 249.039 8.03906C249.273 7.96094 249.495 7.94792 249.703 8C250.042 8.05208 250.341 8.16927 250.602 8.35156C250.862 8.50781 251.109 8.6901 251.344 8.89844C251.76 10.1484 251.93 11.4766 251.852 12.8828C251.773 14.263 251.643 15.6562 251.461 17.0625C251.279 18.4688 251.161 19.849 251.109 21.2031C251.057 22.5312 251.266 23.7682 251.734 24.9141L251.812 24.9531C251.943 24.9792 252.047 24.9401 252.125 24.8359C252.203 24.7057 252.307 24.6536 252.438 24.6797C252.542 24.7318 252.607 24.7578 252.633 24.7578C252.737 25.2786 252.906 25.7734 253.141 26.2422C253.375 26.7109 253.635 27.1797 253.922 27.6484ZM291.266 7.88281C291.161 8.22135 290.992 8.53385 290.758 8.82031L290.094 9.64062C289.885 9.90104 289.703 10.1875 289.547 10.5C289.417 10.7865 289.378 11.125 289.43 11.5156C289.378 11.5156 289.312 11.5156 289.234 11.5156C289.156 11.4896 289.091 11.4766 289.039 11.4766C288.622 11.4766 288.297 11.5807 288.062 11.7891C287.854 11.9714 287.568 12.1276 287.203 12.2578C287.151 12.1016 287.086 11.9583 287.008 11.8281C286.93 11.6719 286.812 11.5677 286.656 11.5156C286.031 11.6458 285.406 11.75 284.781 11.8281C284.156 11.8802 283.531 11.9583 282.906 12.0625C282.62 12.1146 282.333 12.1927 282.047 12.2969C281.76 12.375 281.461 12.4531 281.148 12.5312C280.992 12.5833 280.823 12.6094 280.641 12.6094C280.458 12.5833 280.276 12.5833 280.094 12.6094C279.469 12.6354 278.792 12.6875 278.062 12.7656C277.333 12.8177 276.682 13.013 276.109 13.3516C275.849 13.2995 275.576 13.2604 275.289 13.2344C275.003 13.2083 274.716 13.1953 274.43 13.1953C273.805 13.1953 273.115 13.2604 272.359 13.3906C271.63 13.4948 270.979 13.7161 270.406 14.0547C270.276 14.0026 270.133 13.9635 269.977 13.9375C269.846 13.9115 269.69 13.8984 269.508 13.8984C269.456 13.8984 269.417 13.9115 269.391 13.9375C269.365 13.9375 269.326 13.9375 269.273 13.9375C269.247 14.1719 269.273 14.4062 269.352 14.6406C269.456 14.849 269.625 15.0182 269.859 15.1484C269.755 15.4349 269.703 15.7474 269.703 16.0859C269.703 16.5286 269.729 16.9714 269.781 17.4141C269.859 17.8568 269.898 18.2995 269.898 18.7422C269.898 19.237 269.833 19.6276 269.703 19.9141C269.964 20.6953 270.094 21.5286 270.094 22.4141C270.094 22.7266 270.068 23.0391 270.016 23.3516C269.99 23.638 269.977 23.9505 269.977 24.2891C269.977 24.5755 270.081 24.8099 270.289 24.9922C270.497 25.1484 270.602 25.3698 270.602 25.6562C270.602 25.7604 270.576 25.8646 270.523 25.9688C270.888 25.8906 271.24 25.7865 271.578 25.6562C271.917 25.5 272.268 25.4219 272.633 25.4219C272.841 25.4219 273.036 25.4609 273.219 25.5391C273.427 25.6172 273.609 25.7214 273.766 25.8516C273.74 25.9818 273.714 26.125 273.688 26.2812C273.688 26.4375 273.688 26.5938 273.688 26.75C273.688 27.0365 273.688 27.3099 273.688 27.5703C273.714 27.8047 273.74 28.0651 273.766 28.3516C273.557 28.7161 273.31 29.0417 273.023 29.3281C272.763 29.6146 272.581 29.9792 272.477 30.4219C272.086 30.4219 271.734 30.513 271.422 30.6953C271.135 30.8516 270.862 31.0339 270.602 31.2422C270.341 31.4245 270.081 31.6068 269.82 31.7891C269.56 31.9453 269.273 32.0234 268.961 32.0234C268.57 32.0234 268.297 31.9714 268.141 31.8672C267.984 31.737 267.867 31.6068 267.789 31.4766C267.711 31.3464 267.633 31.2292 267.555 31.125C267.503 31.0208 267.372 30.9818 267.164 31.0078C267.112 30.6693 267.008 30.3568 266.852 30.0703C266.695 29.7578 266.526 29.4583 266.344 29.1719C266.188 28.8854 266.018 28.599 265.836 28.3125C265.68 28 265.562 27.6875 265.484 27.375C265.328 26.6979 265.263 25.9948 265.289 25.2656C265.315 24.5365 265.198 23.8333 264.938 23.1562C264.99 22.7917 265.029 22.4271 265.055 22.0625C265.081 21.6719 265.094 21.2943 265.094 20.9297C265.094 20.2005 265.068 19.4844 265.016 18.7812C264.99 18.0521 264.964 17.3099 264.938 16.5547C264.755 16.3203 264.638 16.0599 264.586 15.7734C264.56 15.4609 264.534 15.1615 264.508 14.875C264.43 14.7969 264.339 14.7188 264.234 14.6406C264.156 14.5625 264.104 14.4583 264.078 14.3281C263.87 14.276 263.714 14.25 263.609 14.25C263.245 14.25 262.932 14.3411 262.672 14.5234C262.438 14.6797 262.216 14.7578 262.008 14.7578C261.799 14.7578 261.604 14.7318 261.422 14.6797C261.24 14.6276 261.057 14.6016 260.875 14.6016C260.719 14.6016 260.628 14.6406 260.602 14.7188C260.602 14.7708 260.549 14.8229 260.445 14.875C260.367 14.9271 260.185 14.9792 259.898 15.0312C259.612 15.0833 259.286 15.1354 258.922 15.1875C258.583 15.2135 258.245 15.2396 257.906 15.2656C257.594 15.2917 257.385 15.3047 257.281 15.3047C256.865 15.3047 256.552 15.2266 256.344 15.0703C256.109 14.888 255.836 14.6927 255.523 14.4844C255.576 14.3281 255.602 14.224 255.602 14.1719C255.602 13.9115 255.523 13.7031 255.367 13.5469C255.211 13.3646 255.133 13.2083 255.133 13.0781C255.133 12.7917 255.25 12.5703 255.484 12.4141C255.693 12.2578 255.81 12.0104 255.836 11.6719C256.435 11.4115 257.047 11.2161 257.672 11.0859C258.297 10.9557 258.935 10.8516 259.586 10.7734C260.237 10.6953 260.875 10.6042 261.5 10.5C262.151 10.3958 262.789 10.2266 263.414 9.99219C263.596 10.0182 263.766 10.0443 263.922 10.0703C264.104 10.0703 264.286 10.0703 264.469 10.0703C265.25 10.0703 266.018 9.99219 266.773 9.83594C267.555 9.65365 268.349 9.5625 269.156 9.5625C269.365 9.5625 269.573 9.57552 269.781 9.60156C269.99 9.6276 270.198 9.66667 270.406 9.71875C271.448 9.5625 272.477 9.39323 273.492 9.21094C274.534 9.02865 275.602 8.8724 276.695 8.74219C277.216 8.6901 277.724 8.65104 278.219 8.625C278.74 8.57292 279.26 8.50781 279.781 8.42969C279.964 8.40365 280.094 8.36458 280.172 8.3125C280.276 8.23438 280.328 8.09115 280.328 7.88281C280.562 7.98698 280.823 8.03906 281.109 8.03906C281.552 8.03906 281.982 7.96094 282.398 7.80469C282.815 7.64844 283.245 7.57031 283.688 7.57031C283.792 7.57031 283.883 7.58333 283.961 7.60938C284.039 7.60938 284.117 7.60938 284.195 7.60938C284.378 7.60938 284.469 7.53125 284.469 7.375C284.495 7.19271 284.625 7.07552 284.859 7.02344C285.042 6.97135 285.302 6.93229 285.641 6.90625C285.979 6.88021 286.331 6.85417 286.695 6.82812C287.086 6.77604 287.438 6.72396 287.75 6.67188C288.089 6.59375 288.336 6.48958 288.492 6.35938L288.766 5.92969C289.234 5.95573 289.573 6.16406 289.781 6.55469C290.016 6.91927 290.146 7.32292 290.172 7.76562C290.276 7.86979 290.419 7.92188 290.602 7.92188C290.81 7.89583 290.992 7.88281 291.148 7.88281H291.266Z" fill="black"/>
<path d="M331.5 5.46094C331.5 5.69531 331.448 5.91667 331.344 6.125L331.07 6.71094C330.992 6.89323 330.914 7.08854 330.836 7.29688C330.758 7.50521 330.732 7.7526 330.758 8.03906C330.393 8.45573 330.029 8.85938 329.664 9.25C329.299 9.64062 328.974 10.0833 328.688 10.5781C328.401 10.5521 328.18 10.6172 328.023 10.7734C327.893 10.9297 327.789 11.138 327.711 11.3984C327.164 11.5807 326.682 11.8672 326.266 12.2578C325.849 12.6224 325.484 13.026 325.172 13.4688C323.792 14.0417 322.503 14.7448 321.305 15.5781C320.107 16.4115 319.013 17.388 318.023 18.5078C318.492 18.5078 318.948 18.5599 319.391 18.6641C319.859 18.7682 320.315 18.8854 320.758 19.0156C321.227 19.1198 321.682 19.224 322.125 19.3281C322.568 19.4062 323.023 19.4193 323.492 19.3672C323.831 19.6797 324.208 19.9401 324.625 20.1484C325.068 20.3568 325.497 20.5521 325.914 20.7344C326.357 20.9167 326.773 21.125 327.164 21.3594C327.581 21.5938 327.945 21.8802 328.258 22.2188C328.258 22.2708 328.245 22.3229 328.219 22.375C328.219 22.401 328.219 22.4401 328.219 22.4922C328.219 22.7005 328.271 22.9089 328.375 23.1172C328.479 23.2995 328.531 23.4948 328.531 23.7031C328.401 23.9115 328.284 24.1328 328.18 24.3672C328.076 24.6016 327.945 24.8099 327.789 24.9922C327.659 25.1745 327.503 25.3307 327.32 25.4609C327.138 25.5911 326.891 25.6693 326.578 25.6953C326.448 26.138 326.24 26.4896 325.953 26.75C325.667 26.9844 325.341 27.2057 324.977 27.4141C324.638 27.5964 324.299 27.7917 323.961 28C323.622 28.1823 323.336 28.4297 323.102 28.7422C322.32 28.9245 321.552 29.1849 320.797 29.5234C320.068 29.8359 319.417 30.2917 318.844 30.8906C318.453 30.9427 318.049 31.0078 317.633 31.0859C317.242 31.138 316.852 31.1641 316.461 31.1641C315.914 31.1641 315.471 31.0599 315.133 30.8516C314.794 30.6172 314.599 30.2005 314.547 29.6016C314.625 29.4193 314.742 29.263 314.898 29.1328L315.406 28.7422C315.589 28.612 315.745 28.4818 315.875 28.3516C316.031 28.1953 316.148 28.013 316.227 27.8047C316.279 27.8047 316.344 27.8177 316.422 27.8438C316.5 27.8438 316.578 27.8438 316.656 27.8438C316.969 27.8438 317.216 27.7786 317.398 27.6484C317.581 27.5182 317.75 27.388 317.906 27.2578C318.089 27.1276 318.284 27.0104 318.492 26.9062C318.701 26.8021 318.974 26.763 319.312 26.7891C319.495 26.4505 319.768 26.2031 320.133 26.0469C320.497 25.8646 320.875 25.7083 321.266 25.5781C321.656 25.4219 322.021 25.2526 322.359 25.0703C322.724 24.862 322.971 24.5625 323.102 24.1719C322.971 23.9635 322.802 23.8073 322.594 23.7031C322.385 23.5729 322.151 23.4688 321.891 23.3906L321.148 23.1562C320.914 23.0781 320.706 22.987 320.523 22.8828C320.237 22.9609 319.964 23 319.703 23C319.156 23 318.622 22.9479 318.102 22.8438C317.581 22.7396 317.047 22.6875 316.5 22.6875C316.005 22.6875 315.576 22.7526 315.211 22.8828C315.081 22.8568 314.938 22.8177 314.781 22.7656C314.651 22.7135 314.521 22.6615 314.391 22.6094C313.792 22.8438 313.167 22.9609 312.516 22.9609H309.977C309.768 22.9609 309.56 22.987 309.352 23.0391C309.065 23.5599 308.922 24.1198 308.922 24.7188C308.922 25.1615 308.987 25.5911 309.117 26.0078C309.247 26.3984 309.378 26.8151 309.508 27.2578C310.029 27.7266 310.51 28.2865 310.953 28.9375C311.396 29.5625 311.617 30.2526 311.617 31.0078C311.617 31.1901 311.604 31.3333 311.578 31.4375C311.318 31.2552 310.979 31.1641 310.562 31.1641C310.198 31.1641 309.846 31.2161 309.508 31.3203C309.195 31.4245 308.857 31.5026 308.492 31.5547C308.206 31.4245 307.906 31.2943 307.594 31.1641C307.281 31.0078 306.982 30.8255 306.695 30.6172C306.487 30.1745 306.279 29.7578 306.07 29.3672C305.862 28.9505 305.602 28.5599 305.289 28.1953V28.0391C305.289 27.1276 305.211 26.2292 305.055 25.3438C304.924 24.4583 304.859 23.5599 304.859 22.6484C304.859 22.2318 304.872 21.8151 304.898 21.3984C304.951 20.9557 305.081 20.5521 305.289 20.1875C305.211 19.5625 305.172 18.9115 305.172 18.2344C305.172 16.8802 305.25 15.526 305.406 14.1719C305.562 12.8177 305.641 11.4375 305.641 10.0312C305.641 9.74479 305.628 9.45833 305.602 9.17188C305.602 8.88542 305.589 8.59896 305.562 8.3125H305.406C305.068 8.3125 304.742 8.36458 304.43 8.46875C304.117 8.54688 303.805 8.63802 303.492 8.74219C303.18 8.84635 302.854 8.95052 302.516 9.05469C302.177 9.13281 301.839 9.17188 301.5 9.17188C301.292 9.27604 301.122 9.38021 300.992 9.48438C300.862 9.58854 300.732 9.67969 300.602 9.75781C300.471 9.83594 300.328 9.90104 300.172 9.95312C299.99 10.0052 299.781 10.0182 299.547 9.99219C299.26 10.1745 299.039 10.3177 298.883 10.4219C298.701 10.5 298.453 10.5911 298.141 10.6953C297.984 10.7474 297.854 10.8255 297.75 10.9297L297.438 11.2031C297.333 11.2812 297.216 11.3594 297.086 11.4375C296.956 11.5156 296.786 11.5547 296.578 11.5547C296.396 11.5547 296.266 11.5417 296.188 11.5156C296.031 11.3854 295.901 11.2292 295.797 11.0469C295.667 10.8646 295.549 10.6953 295.445 10.5391C295.315 10.3568 295.185 10.2005 295.055 10.0703C294.898 9.91406 294.716 9.79688 294.508 9.71875C294.612 9.58854 294.664 9.48438 294.664 9.40625C294.638 9.30208 294.625 9.1849 294.625 9.05469C294.625 8.97656 294.638 8.92448 294.664 8.89844C294.794 8.42969 295.029 8.0651 295.367 7.80469C295.706 7.51823 296.083 7.29688 296.5 7.14062C296.917 6.95833 297.346 6.80208 297.789 6.67188C298.206 6.54167 298.596 6.38542 298.961 6.20312C299.977 6.22917 300.901 6.13802 301.734 5.92969C302.568 5.69531 303.427 5.36979 304.312 4.95312C304.469 5.03125 304.625 5.07031 304.781 5.07031C304.911 5.07031 305.042 5.05729 305.172 5.03125L305.562 4.95312C305.875 4.69271 306.214 4.52344 306.578 4.44531C306.943 4.36719 307.307 4.30208 307.672 4.25C308.036 4.19792 308.388 4.14583 308.727 4.09375C309.065 4.01562 309.365 3.8724 309.625 3.66406H309.781C310.406 3.66406 311.031 3.5599 311.656 3.35156C312.307 3.14323 312.932 3.0651 313.531 3.11719C314.052 2.83073 314.534 2.64844 314.977 2.57031C315.419 2.49219 315.927 2.45312 316.5 2.45312C316.63 2.45312 316.786 2.40104 316.969 2.29688C317.151 2.16667 317.372 2.10156 317.633 2.10156C317.685 2.10156 317.724 2.11458 317.75 2.14062C317.802 2.14062 317.854 2.14062 317.906 2.14062C318.141 2.14062 318.297 2.0625 318.375 1.90625C318.479 1.75 318.727 1.67188 319.117 1.67188C319.299 1.67188 319.469 1.6849 319.625 1.71094C319.781 1.71094 319.938 1.71094 320.094 1.71094C320.276 1.71094 320.393 1.64583 320.445 1.51562C320.497 1.35938 320.615 1.29427 320.797 1.32031C320.875 1.42448 321.005 1.47656 321.188 1.47656C321.37 1.45052 321.513 1.4375 321.617 1.4375C321.799 1.4375 321.904 1.48958 321.93 1.59375C322.346 1.33333 322.802 1.16406 323.297 1.08594C323.818 1.00781 324.312 0.96875 324.781 0.96875C324.964 0.96875 325.146 0.981771 325.328 1.00781C325.51 1.00781 325.706 1.02083 325.914 1.04688C326.148 0.890625 326.422 0.8125 326.734 0.8125C326.917 0.8125 327.203 0.890625 327.594 1.04688C328.01 1.20312 328.44 1.38542 328.883 1.59375C329.326 1.80208 329.729 2.02344 330.094 2.25781C330.458 2.49219 330.68 2.6875 330.758 2.84375C330.81 2.89583 330.836 3.01302 330.836 3.19531C330.862 3.3776 330.901 3.53385 330.953 3.66406C331.083 3.97656 331.201 4.27604 331.305 4.5625C331.435 4.82292 331.5 5.1224 331.5 5.46094ZM327.164 5.89062C327.164 5.83854 327.151 5.78646 327.125 5.73438C327.125 5.65625 327.125 5.59115 327.125 5.53906C326.995 5.38281 326.812 5.26562 326.578 5.1875C326.37 5.10938 326.135 5.04427 325.875 4.99219C325.641 4.9401 325.393 4.90104 325.133 4.875C324.898 4.82292 324.69 4.75781 324.508 4.67969C323.961 4.86198 323.362 4.95312 322.711 4.95312C322.112 4.95312 321.578 4.86198 321.109 4.67969C320.875 4.91406 320.576 5.09635 320.211 5.22656C319.846 5.35677 319.456 5.46094 319.039 5.53906C318.648 5.59115 318.245 5.63021 317.828 5.65625C317.438 5.65625 317.086 5.65625 316.773 5.65625C316.669 5.65625 316.487 5.73438 316.227 5.89062C315.966 6.04688 315.732 6.125 315.523 6.125C315.367 6.125 315.224 6.0599 315.094 5.92969C314.859 6.11198 314.534 6.26823 314.117 6.39844C313.701 6.52865 313.271 6.64583 312.828 6.75C312.385 6.82812 311.93 6.91927 311.461 7.02344C311.018 7.1276 310.641 7.23177 310.328 7.33594C310.016 8.01302 309.846 8.75521 309.82 9.5625C309.794 10.3438 309.781 11.112 309.781 11.8672C309.781 12.3099 309.755 12.7396 309.703 13.1562C309.651 13.5729 309.625 14.0026 309.625 14.4453C309.625 14.6536 309.638 14.875 309.664 15.1094C309.69 15.3177 309.768 15.526 309.898 15.7344C309.69 15.8906 309.547 16.099 309.469 16.3594C309.417 16.5938 309.391 16.8281 309.391 17.0625C309.391 17.349 309.417 17.6094 309.469 17.8438C309.521 18.0781 309.573 18.2995 309.625 18.5078C310.458 18.4297 311.214 18.2734 311.891 18.0391C312.594 17.8047 313.245 17.5182 313.844 17.1797C314.469 16.8411 315.068 16.4505 315.641 16.0078C316.214 15.5651 316.812 15.0964 317.438 14.6016C317.698 14.5495 317.906 14.4714 318.062 14.3672C318.245 14.263 318.466 14.2109 318.727 14.2109C318.831 13.8464 319.026 13.599 319.312 13.4688C319.599 13.3125 319.82 13.0911 319.977 12.8047C320.289 12.7266 320.549 12.6224 320.758 12.4922C320.992 12.3359 321.214 12.1927 321.422 12.0625C321.63 11.9062 321.852 11.763 322.086 11.6328C322.346 11.5026 322.633 11.4245 322.945 11.3984C323.388 10.8776 323.844 10.3568 324.312 9.83594C324.807 9.3151 325.38 8.89844 326.031 8.58594C326.135 8.32552 326.253 8.10417 326.383 7.92188C326.513 7.71354 326.63 7.51823 326.734 7.33594C326.865 7.1276 326.969 6.91927 327.047 6.71094C327.125 6.47656 327.164 6.20312 327.164 5.89062ZM356.344 26.6719C356.24 27.0625 356.07 27.388 355.836 27.6484C355.602 27.9089 355.328 28.1432 355.016 28.3516C354.729 28.5599 354.417 28.7552 354.078 28.9375C353.74 29.0938 353.414 29.276 353.102 29.4844H352.594C351.5 29.4844 350.654 29.224 350.055 28.7031C349.482 28.1562 349.039 27.4922 348.727 26.7109C348.414 25.9036 348.18 25.0443 348.023 24.1328C347.893 23.2214 347.724 22.388 347.516 21.6328C347.203 21.8932 346.943 22.2057 346.734 22.5703C346.526 22.9089 346.305 23.2474 346.07 23.5859C345.862 23.9245 345.615 24.237 345.328 24.5234C345.068 24.8099 344.716 25.0052 344.273 25.1094C344.195 25.2917 344.104 25.474 344 25.6562C343.922 25.8385 343.87 26.0339 343.844 26.2422C343.271 26.5547 342.75 26.9193 342.281 27.3359C341.812 27.7526 341.344 28.1823 340.875 28.625C340.406 29.0677 339.924 29.4974 339.43 29.9141C338.961 30.3047 338.427 30.6302 337.828 30.8906C337.802 30.8646 337.75 30.8516 337.672 30.8516C337.359 30.8516 337.073 30.9297 336.812 31.0859C336.552 31.2161 336.266 31.2812 335.953 31.2812C335.745 31.2812 335.549 31.2422 335.367 31.1641C335.211 31.0859 335.042 30.9948 334.859 30.8906C334.703 30.7865 334.534 30.7083 334.352 30.6562C334.169 30.6042 333.974 30.5911 333.766 30.6172C333.505 30.1484 333.154 29.7188 332.711 29.3281C332.294 28.9115 332.034 28.4427 331.93 27.9219C331.878 27.6875 331.839 27.4531 331.812 27.2188C331.812 26.9583 331.786 26.6979 331.734 26.4375C331.656 26.0469 331.552 25.6562 331.422 25.2656C331.292 24.849 331.188 24.4323 331.109 24.0156C331.24 23.3125 331.37 22.5443 331.5 21.7109C331.604 20.8516 331.734 20.0052 331.891 19.1719C332.073 18.3125 332.307 17.5052 332.594 16.75C332.906 15.9688 333.297 15.3047 333.766 14.7578L333.727 14.4844C333.727 14.0677 333.805 13.6771 333.961 13.3125C334.117 12.9479 334.286 12.5964 334.469 12.2578C334.651 11.9193 334.807 11.5807 334.938 11.2422C335.068 10.9036 335.094 10.526 335.016 10.1094C335.328 9.95312 335.654 9.82292 335.992 9.71875C336.331 9.61458 336.682 9.5625 337.047 9.5625C337.385 9.5625 337.698 9.61458 337.984 9.71875C337.932 9.92708 338.023 10.0573 338.258 10.1094V10.2266C338.258 10.7734 338.193 11.3073 338.062 11.8281C337.932 12.349 337.776 12.8698 337.594 13.3906C337.411 13.8854 337.229 14.3932 337.047 14.9141C336.891 15.4089 336.773 15.9167 336.695 16.4375C336.591 16.4635 336.513 16.5156 336.461 16.5938C336.435 16.6719 336.409 16.75 336.383 16.8281C336.357 16.9062 336.318 16.9714 336.266 17.0234C336.214 17.0755 336.135 17.1016 336.031 17.1016C335.875 18.013 335.706 18.9245 335.523 19.8359C335.367 20.7214 335.289 21.6198 335.289 22.5312C335.289 23.0781 335.341 23.638 335.445 24.2109C335.549 24.7839 335.745 25.3307 336.031 25.8516L336.188 25.8125C336.474 25.8125 336.695 25.8776 336.852 26.0078C337.034 26.138 337.268 26.2682 337.555 26.3984C337.763 26.3464 337.958 26.2812 338.141 26.2031C338.323 26.099 338.401 25.9297 338.375 25.6953C338.714 25.6693 339 25.5911 339.234 25.4609C339.469 25.3047 339.677 25.1354 339.859 24.9531L340.445 24.4062C340.654 24.224 340.901 24.0938 341.188 24.0156C341.188 23.8594 341.227 23.7422 341.305 23.6641L341.539 23.4297C341.617 23.3516 341.669 23.2734 341.695 23.1953C341.747 23.0911 341.76 22.9479 341.734 22.7656C342.047 22.7396 342.281 22.6615 342.438 22.5312C342.62 22.401 342.776 22.2578 342.906 22.1016C343.062 21.9193 343.206 21.737 343.336 21.5547C343.466 21.3724 343.635 21.2161 343.844 21.0859C344.026 20.6953 344.273 20.1745 344.586 19.5234C344.924 18.8724 345.25 18.1953 345.562 17.4922C345.901 16.7891 346.188 16.125 346.422 15.5C346.682 14.849 346.812 14.3542 346.812 14.0156C346.812 13.8854 346.773 13.7682 346.695 13.6641C346.643 13.5599 346.63 13.4427 346.656 13.3125V13.1953C346.865 12.9349 347.047 12.6484 347.203 12.3359C347.385 12.0234 347.568 11.724 347.75 11.4375C347.958 11.151 348.18 10.8906 348.414 10.6562C348.648 10.4219 348.948 10.2396 349.312 10.1094C349.729 10.2396 350.146 10.3307 350.562 10.3828C351.005 10.4349 351.422 10.5391 351.812 10.6953C351.839 11.3464 351.904 12.1016 352.008 12.9609C352.112 13.8203 352.294 14.5495 352.555 15.1484C352.555 15.487 352.542 15.8125 352.516 16.125C352.516 16.4375 352.516 16.75 352.516 17.0625C352.516 17.5833 352.529 18.1172 352.555 18.6641C352.607 19.2109 352.698 19.7188 352.828 20.1875C352.646 20.5781 352.555 20.9948 352.555 21.4375C352.555 22.0365 352.646 22.6094 352.828 23.1562C353.01 23.6771 353.141 24.237 353.219 24.8359C353.557 25.3047 354 25.5391 354.547 25.5391C354.677 25.5391 354.781 25.526 354.859 25.5C354.964 25.474 355.068 25.4349 355.172 25.3828C355.38 25.6172 355.562 25.8516 355.719 26.0859C355.901 26.2943 356.109 26.4896 356.344 26.6719ZM378.297 6.125C378.297 6.35938 378.193 6.55469 377.984 6.71094C377.802 6.86719 377.711 6.98438 377.711 7.0625C377.711 7.21875 377.737 7.33594 377.789 7.41406C377.841 7.46615 377.867 7.53125 377.867 7.60938V7.80469C377.607 8.0651 377.411 8.35156 377.281 8.66406C377.151 8.95052 377.047 9.26302 376.969 9.60156C376.891 9.91406 376.812 10.2396 376.734 10.5781C376.682 10.9167 376.604 11.2422 376.5 11.5547C376.37 11.8672 376.201 12.1406 375.992 12.375C375.784 12.5833 375.615 12.8307 375.484 13.1172C375.276 13.5859 375.12 14.0677 375.016 14.5625C374.911 15.0573 374.69 15.513 374.352 15.9297V16.125C374.326 16.3073 374.378 16.4635 374.508 16.5938C374.013 17.2448 373.622 18.026 373.336 18.9375C373.049 19.8229 372.815 20.7604 372.633 21.75C372.451 22.7135 372.294 23.6901 372.164 24.6797C372.034 25.6432 371.878 26.5156 371.695 27.2969C371.826 27.8698 372.021 28.4167 372.281 28.9375C372.568 29.4323 372.841 29.9531 373.102 30.5C373.622 30.6302 374.117 30.8125 374.586 31.0469C375.081 31.2812 375.432 31.6589 375.641 32.1797C375.589 32.7005 375.419 33.1042 375.133 33.3906C374.846 33.6771 374.495 33.9766 374.078 34.2891C373.792 34.1849 373.557 34.0938 373.375 34.0156C373.193 33.9635 372.919 33.9635 372.555 34.0156C372.06 33.625 371.591 33.3125 371.148 33.0781C370.732 32.8438 370.354 32.4401 370.016 31.8672C369.964 31.7891 369.885 31.75 369.781 31.75H369.43C369.299 31.4375 369.143 31.112 368.961 30.7734C368.779 30.4089 368.596 30.0443 368.414 29.6797C368.232 29.2891 368.076 28.9115 367.945 28.5469C367.815 28.1562 367.75 27.8047 367.75 27.4922C367.75 26.1641 367.867 24.849 368.102 23.5469C368.362 22.2188 368.492 20.8776 368.492 19.5234V19.1328C367.971 19.263 367.451 19.4453 366.93 19.6797C366.435 19.9141 365.927 20.0964 365.406 20.2266C365.224 20.2786 365.12 20.3698 365.094 20.5C365.068 20.6302 364.99 20.7344 364.859 20.8125C364.599 20.8385 364.352 20.8646 364.117 20.8906C363.883 20.8906 363.661 20.8906 363.453 20.8906C363.01 20.8906 362.542 20.8776 362.047 20.8516C361.578 20.7995 361.109 20.7083 360.641 20.5781C360.172 20.4479 359.729 20.2656 359.312 20.0312C358.922 19.7969 358.57 19.4974 358.258 19.1328C358.206 19.1589 358.141 19.1849 358.062 19.2109C357.984 19.237 357.906 19.25 357.828 19.25C357.75 19.25 357.672 19.237 357.594 19.2109C357.516 19.1849 357.451 19.1589 357.398 19.1328C357.19 18.8464 357.021 18.5339 356.891 18.1953L356.5 17.1797C356.37 16.8411 356.227 16.5156 356.07 16.2031C355.914 15.8906 355.706 15.6042 355.445 15.3438C355.367 14.875 355.328 14.4193 355.328 13.9766C355.328 13.5078 355.367 13.0521 355.445 12.6094C355.497 12.1667 355.589 11.724 355.719 11.2812C355.615 10.9688 355.549 10.6432 355.523 10.3047C355.471 9.96615 355.445 9.6276 355.445 9.28906C355.445 8.89844 355.484 8.49479 355.562 8.07812C355.641 7.66146 355.771 7.28385 355.953 6.94531C356.135 6.58073 356.396 6.28125 356.734 6.04688C357.047 5.8125 357.438 5.69531 357.906 5.69531C358.427 5.69531 358.909 5.83854 359.352 6.125C359.794 6.38542 360.224 6.65885 360.641 6.94531C360.693 7.25781 360.732 7.57031 360.758 7.88281C360.784 8.16927 360.797 8.48177 360.797 8.82031C360.797 9.44531 360.758 10.0833 360.68 10.7344C360.628 11.3594 360.602 11.9974 360.602 12.6484C360.602 13.3255 360.68 13.9635 360.836 14.5625C361.018 15.1354 361.331 15.6823 361.773 16.2031H361.93C362.138 16.1771 362.32 16.2161 362.477 16.3203C362.633 16.4245 362.815 16.4766 363.023 16.4766C363.206 16.4766 363.349 16.4115 363.453 16.2812C363.557 16.125 363.688 16.0469 363.844 16.0469C364 16.0469 364.117 16.0729 364.195 16.125C364.273 16.1771 364.339 16.2031 364.391 16.2031C364.677 16.2031 365.003 16.099 365.367 15.8906C365.732 15.6823 365.966 15.4479 366.07 15.1875C366.174 15.2656 366.305 15.3047 366.461 15.3047C366.669 15.3047 366.865 15.2396 367.047 15.1094C367.229 14.9792 367.464 14.9141 367.75 14.9141C367.906 14.9141 367.958 14.8229 367.906 14.6406C367.88 14.4323 367.932 14.3021 368.062 14.25C368.375 14.1198 368.714 13.9375 369.078 13.7031C369.469 13.4427 369.781 13.2865 370.016 13.2344C370.146 12.8958 370.302 12.5833 370.484 12.2969C370.693 11.9844 370.901 11.6979 371.109 11.4375C371.188 10.8385 371.344 10.2656 371.578 9.71875C371.812 9.17188 372.06 8.625 372.32 8.07812C372.581 7.53125 372.828 6.98438 373.062 6.4375C373.297 5.89062 373.453 5.31771 373.531 4.71875C373.818 4.43229 374.039 4.11979 374.195 3.78125C374.378 3.44271 374.534 3.10417 374.664 2.76562C374.924 2.6875 375.25 2.64844 375.641 2.64844C376.031 2.6224 376.37 2.60938 376.656 2.60938H377.32C377.398 2.76562 377.503 2.90885 377.633 3.03906L378.023 3.42969C377.789 3.79427 377.672 4.15885 377.672 4.52344C377.672 4.8099 377.737 5.09635 377.867 5.38281C377.997 5.64323 378.141 5.89062 378.297 6.125ZM403.844 27.6484C403.714 27.8568 403.557 28.0521 403.375 28.2344C403.193 28.3906 403.023 28.5599 402.867 28.7422C402.685 28.8203 402.477 28.8594 402.242 28.8594C402.034 28.8594 401.826 28.8594 401.617 28.8594C401.435 28.8333 401.253 28.8333 401.07 28.8594C400.914 28.8594 400.784 28.9115 400.68 29.0156C400.471 28.9635 400.315 28.8724 400.211 28.7422C400.107 28.5859 399.924 28.4948 399.664 28.4688C399.56 28.4427 399.456 28.4427 399.352 28.4688C398.961 28.026 398.596 27.5573 398.258 27.0625C397.945 26.5677 397.646 26.099 397.359 25.6562C397.333 24.6927 397.255 23.7161 397.125 22.7266C397.099 22.4922 397.06 22.2578 397.008 22.0234C396.956 21.7891 396.917 21.5677 396.891 21.3594C396.891 21.099 396.904 20.8516 396.93 20.6172C396.982 20.3568 397.021 20.1224 397.047 19.9141C397.151 19.1589 397.268 18.4167 397.398 17.6875C397.529 16.9583 397.646 16.2161 397.75 15.4609C397.854 14.7839 397.906 14.0807 397.906 13.3516C397.906 12.5964 397.789 11.8932 397.555 11.2422L397.516 11.0469C397.568 10.8385 397.62 10.6693 397.672 10.5391C397.75 10.3828 397.802 10.2135 397.828 10.0312C397.88 9.74479 397.815 9.53646 397.633 9.40625C397.711 9.19792 397.841 9.06771 398.023 9.01562C398.206 8.9375 398.31 8.78125 398.336 8.54688C398.362 8.44271 398.362 8.33854 398.336 8.23438C398.544 8.15625 398.753 8.09115 398.961 8.03906C399.195 7.96094 399.417 7.94792 399.625 8C399.964 8.05208 400.263 8.16927 400.523 8.35156C400.784 8.50781 401.031 8.6901 401.266 8.89844C401.682 10.1484 401.852 11.4766 401.773 12.8828C401.695 14.263 401.565 15.6562 401.383 17.0625C401.201 18.4688 401.083 19.849 401.031 21.2031C400.979 22.5312 401.188 23.7682 401.656 24.9141L401.734 24.9531C401.865 24.9792 401.969 24.9401 402.047 24.8359C402.125 24.7057 402.229 24.6536 402.359 24.6797C402.464 24.7318 402.529 24.7578 402.555 24.7578C402.659 25.2786 402.828 25.7734 403.062 26.2422C403.297 26.7109 403.557 27.1797 403.844 27.6484ZM441.188 7.88281C441.083 8.22135 440.914 8.53385 440.68 8.82031L440.016 9.64062C439.807 9.90104 439.625 10.1875 439.469 10.5C439.339 10.7865 439.299 11.125 439.352 11.5156C439.299 11.5156 439.234 11.5156 439.156 11.5156C439.078 11.4896 439.013 11.4766 438.961 11.4766C438.544 11.4766 438.219 11.5807 437.984 11.7891C437.776 11.9714 437.49 12.1276 437.125 12.2578C437.073 12.1016 437.008 11.9583 436.93 11.8281C436.852 11.6719 436.734 11.5677 436.578 11.5156C435.953 11.6458 435.328 11.75 434.703 11.8281C434.078 11.8802 433.453 11.9583 432.828 12.0625C432.542 12.1146 432.255 12.1927 431.969 12.2969C431.682 12.375 431.383 12.4531 431.07 12.5312C430.914 12.5833 430.745 12.6094 430.562 12.6094C430.38 12.5833 430.198 12.5833 430.016 12.6094C429.391 12.6354 428.714 12.6875 427.984 12.7656C427.255 12.8177 426.604 13.013 426.031 13.3516C425.771 13.2995 425.497 13.2604 425.211 13.2344C424.924 13.2083 424.638 13.1953 424.352 13.1953C423.727 13.1953 423.036 13.2604 422.281 13.3906C421.552 13.4948 420.901 13.7161 420.328 14.0547C420.198 14.0026 420.055 13.9635 419.898 13.9375C419.768 13.9115 419.612 13.8984 419.43 13.8984C419.378 13.8984 419.339 13.9115 419.312 13.9375C419.286 13.9375 419.247 13.9375 419.195 13.9375C419.169 14.1719 419.195 14.4062 419.273 14.6406C419.378 14.849 419.547 15.0182 419.781 15.1484C419.677 15.4349 419.625 15.7474 419.625 16.0859C419.625 16.5286 419.651 16.9714 419.703 17.4141C419.781 17.8568 419.82 18.2995 419.82 18.7422C419.82 19.237 419.755 19.6276 419.625 19.9141C419.885 20.6953 420.016 21.5286 420.016 22.4141C420.016 22.7266 419.99 23.0391 419.938 23.3516C419.911 23.638 419.898 23.9505 419.898 24.2891C419.898 24.5755 420.003 24.8099 420.211 24.9922C420.419 25.1484 420.523 25.3698 420.523 25.6562C420.523 25.7604 420.497 25.8646 420.445 25.9688C420.81 25.8906 421.161 25.7865 421.5 25.6562C421.839 25.5 422.19 25.4219 422.555 25.4219C422.763 25.4219 422.958 25.4609 423.141 25.5391C423.349 25.6172 423.531 25.7214 423.688 25.8516C423.661 25.9818 423.635 26.125 423.609 26.2812C423.609 26.4375 423.609 26.5938 423.609 26.75C423.609 27.0365 423.609 27.3099 423.609 27.5703C423.635 27.8047 423.661 28.0651 423.688 28.3516C423.479 28.7161 423.232 29.0417 422.945 29.3281C422.685 29.6146 422.503 29.9792 422.398 30.4219C422.008 30.4219 421.656 30.513 421.344 30.6953C421.057 30.8516 420.784 31.0339 420.523 31.2422C420.263 31.4245 420.003 31.6068 419.742 31.7891C419.482 31.9453 419.195 32.0234 418.883 32.0234C418.492 32.0234 418.219 31.9714 418.062 31.8672C417.906 31.737 417.789 31.6068 417.711 31.4766C417.633 31.3464 417.555 31.2292 417.477 31.125C417.424 31.0208 417.294 30.9818 417.086 31.0078C417.034 30.6693 416.93 30.3568 416.773 30.0703C416.617 29.7578 416.448 29.4583 416.266 29.1719C416.109 28.8854 415.94 28.599 415.758 28.3125C415.602 28 415.484 27.6875 415.406 27.375C415.25 26.6979 415.185 25.9948 415.211 25.2656C415.237 24.5365 415.12 23.8333 414.859 23.1562C414.911 22.7917 414.951 22.4271 414.977 22.0625C415.003 21.6719 415.016 21.2943 415.016 20.9297C415.016 20.2005 414.99 19.4844 414.938 18.7812C414.911 18.0521 414.885 17.3099 414.859 16.5547C414.677 16.3203 414.56 16.0599 414.508 15.7734C414.482 15.4609 414.456 15.1615 414.43 14.875C414.352 14.7969 414.26 14.7188 414.156 14.6406C414.078 14.5625 414.026 14.4583 414 14.3281C413.792 14.276 413.635 14.25 413.531 14.25C413.167 14.25 412.854 14.3411 412.594 14.5234C412.359 14.6797 412.138 14.7578 411.93 14.7578C411.721 14.7578 411.526 14.7318 411.344 14.6797C411.161 14.6276 410.979 14.6016 410.797 14.6016C410.641 14.6016 410.549 14.6406 410.523 14.7188C410.523 14.7708 410.471 14.8229 410.367 14.875C410.289 14.9271 410.107 14.9792 409.82 15.0312C409.534 15.0833 409.208 15.1354 408.844 15.1875C408.505 15.2135 408.167 15.2396 407.828 15.2656C407.516 15.2917 407.307 15.3047 407.203 15.3047C406.786 15.3047 406.474 15.2266 406.266 15.0703C406.031 14.888 405.758 14.6927 405.445 14.4844C405.497 14.3281 405.523 14.224 405.523 14.1719C405.523 13.9115 405.445 13.7031 405.289 13.5469C405.133 13.3646 405.055 13.2083 405.055 13.0781C405.055 12.7917 405.172 12.5703 405.406 12.4141C405.615 12.2578 405.732 12.0104 405.758 11.6719C406.357 11.4115 406.969 11.2161 407.594 11.0859C408.219 10.9557 408.857 10.8516 409.508 10.7734C410.159 10.6953 410.797 10.6042 411.422 10.5C412.073 10.3958 412.711 10.2266 413.336 9.99219C413.518 10.0182 413.688 10.0443 413.844 10.0703C414.026 10.0703 414.208 10.0703 414.391 10.0703C415.172 10.0703 415.94 9.99219 416.695 9.83594C417.477 9.65365 418.271 9.5625 419.078 9.5625C419.286 9.5625 419.495 9.57552 419.703 9.60156C419.911 9.6276 420.12 9.66667 420.328 9.71875C421.37 9.5625 422.398 9.39323 423.414 9.21094C424.456 9.02865 425.523 8.8724 426.617 8.74219C427.138 8.6901 427.646 8.65104 428.141 8.625C428.661 8.57292 429.182 8.50781 429.703 8.42969C429.885 8.40365 430.016 8.36458 430.094 8.3125C430.198 8.23438 430.25 8.09115 430.25 7.88281C430.484 7.98698 430.745 8.03906 431.031 8.03906C431.474 8.03906 431.904 7.96094 432.32 7.80469C432.737 7.64844 433.167 7.57031 433.609 7.57031C433.714 7.57031 433.805 7.58333 433.883 7.60938C433.961 7.60938 434.039 7.60938 434.117 7.60938C434.299 7.60938 434.391 7.53125 434.391 7.375C434.417 7.19271 434.547 7.07552 434.781 7.02344C434.964 6.97135 435.224 6.93229 435.562 6.90625C435.901 6.88021 436.253 6.85417 436.617 6.82812C437.008 6.77604 437.359 6.72396 437.672 6.67188C438.01 6.59375 438.258 6.48958 438.414 6.35938L438.688 5.92969C439.156 5.95573 439.495 6.16406 439.703 6.55469C439.938 6.91927 440.068 7.32292 440.094 7.76562C440.198 7.86979 440.341 7.92188 440.523 7.92188C440.732 7.89583 440.914 7.88281 441.07 7.88281H441.188Z" fill="#404040" fill-opacity="0.3"/>
<path d="M476.461 26.6719C476.357 27.0625 476.188 27.388 475.953 27.6484C475.719 27.9089 475.445 28.1432 475.133 28.3516C474.846 28.5599 474.534 28.7552 474.195 28.9375C473.857 29.0938 473.531 29.276 473.219 29.4844H472.711C471.617 29.4844 470.771 29.224 470.172 28.7031C469.599 28.1562 469.156 27.4922 468.844 26.7109C468.531 25.9036 468.297 25.0443 468.141 24.1328C468.01 23.2214 467.841 22.388 467.633 21.6328C467.32 21.8932 467.06 22.2057 466.852 22.5703C466.643 22.9089 466.422 23.2474 466.188 23.5859C465.979 23.9245 465.732 24.237 465.445 24.5234C465.185 24.8099 464.833 25.0052 464.391 25.1094C464.312 25.2917 464.221 25.474 464.117 25.6562C464.039 25.8385 463.987 26.0339 463.961 26.2422C463.388 26.5547 462.867 26.9193 462.398 27.3359C461.93 27.7526 461.461 28.1823 460.992 28.625C460.523 29.0677 460.042 29.4974 459.547 29.9141C459.078 30.3047 458.544 30.6302 457.945 30.8906C457.919 30.8646 457.867 30.8516 457.789 30.8516C457.477 30.8516 457.19 30.9297 456.93 31.0859C456.669 31.2161 456.383 31.2812 456.07 31.2812C455.862 31.2812 455.667 31.2422 455.484 31.1641C455.328 31.0859 455.159 30.9948 454.977 30.8906C454.82 30.7865 454.651 30.7083 454.469 30.6562C454.286 30.6042 454.091 30.5911 453.883 30.6172C453.622 30.1484 453.271 29.7188 452.828 29.3281C452.411 28.9115 452.151 28.4427 452.047 27.9219C451.995 27.6875 451.956 27.4531 451.93 27.2188C451.93 26.9583 451.904 26.6979 451.852 26.4375C451.773 26.0469 451.669 25.6562 451.539 25.2656C451.409 24.849 451.305 24.4323 451.227 24.0156C451.357 23.3125 451.487 22.5443 451.617 21.7109C451.721 20.8516 451.852 20.0052 452.008 19.1719C452.19 18.3125 452.424 17.5052 452.711 16.75C453.023 15.9688 453.414 15.3047 453.883 14.7578L453.844 14.4844C453.844 14.0677 453.922 13.6771 454.078 13.3125C454.234 12.9479 454.404 12.5964 454.586 12.2578C454.768 11.9193 454.924 11.5807 455.055 11.2422C455.185 10.9036 455.211 10.526 455.133 10.1094C455.445 9.95312 455.771 9.82292 456.109 9.71875C456.448 9.61458 456.799 9.5625 457.164 9.5625C457.503 9.5625 457.815 9.61458 458.102 9.71875C458.049 9.92708 458.141 10.0573 458.375 10.1094V10.2266C458.375 10.7734 458.31 11.3073 458.18 11.8281C458.049 12.349 457.893 12.8698 457.711 13.3906C457.529 13.8854 457.346 14.3932 457.164 14.9141C457.008 15.4089 456.891 15.9167 456.812 16.4375C456.708 16.4635 456.63 16.5156 456.578 16.5938C456.552 16.6719 456.526 16.75 456.5 16.8281C456.474 16.9062 456.435 16.9714 456.383 17.0234C456.331 17.0755 456.253 17.1016 456.148 17.1016C455.992 18.013 455.823 18.9245 455.641 19.8359C455.484 20.7214 455.406 21.6198 455.406 22.5312C455.406 23.0781 455.458 23.638 455.562 24.2109C455.667 24.7839 455.862 25.3307 456.148 25.8516L456.305 25.8125C456.591 25.8125 456.812 25.8776 456.969 26.0078C457.151 26.138 457.385 26.2682 457.672 26.3984C457.88 26.3464 458.076 26.2812 458.258 26.2031C458.44 26.099 458.518 25.9297 458.492 25.6953C458.831 25.6693 459.117 25.5911 459.352 25.4609C459.586 25.3047 459.794 25.1354 459.977 24.9531L460.562 24.4062C460.771 24.224 461.018 24.0938 461.305 24.0156C461.305 23.8594 461.344 23.7422 461.422 23.6641L461.656 23.4297C461.734 23.3516 461.786 23.2734 461.812 23.1953C461.865 23.0911 461.878 22.9479 461.852 22.7656C462.164 22.7396 462.398 22.6615 462.555 22.5312C462.737 22.401 462.893 22.2578 463.023 22.1016C463.18 21.9193 463.323 21.737 463.453 21.5547C463.583 21.3724 463.753 21.2161 463.961 21.0859C464.143 20.6953 464.391 20.1745 464.703 19.5234C465.042 18.8724 465.367 18.1953 465.68 17.4922C466.018 16.7891 466.305 16.125 466.539 15.5C466.799 14.849 466.93 14.3542 466.93 14.0156C466.93 13.8854 466.891 13.7682 466.812 13.6641C466.76 13.5599 466.747 13.4427 466.773 13.3125V13.1953C466.982 12.9349 467.164 12.6484 467.32 12.3359C467.503 12.0234 467.685 11.724 467.867 11.4375C468.076 11.151 468.297 10.8906 468.531 10.6562C468.766 10.4219 469.065 10.2396 469.43 10.1094C469.846 10.2396 470.263 10.3307 470.68 10.3828C471.122 10.4349 471.539 10.5391 471.93 10.6953C471.956 11.3464 472.021 12.1016 472.125 12.9609C472.229 13.8203 472.411 14.5495 472.672 15.1484C472.672 15.487 472.659 15.8125 472.633 16.125C472.633 16.4375 472.633 16.75 472.633 17.0625C472.633 17.5833 472.646 18.1172 472.672 18.6641C472.724 19.2109 472.815 19.7188 472.945 20.1875C472.763 20.5781 472.672 20.9948 472.672 21.4375C472.672 22.0365 472.763 22.6094 472.945 23.1562C473.128 23.6771 473.258 24.237 473.336 24.8359C473.674 25.3047 474.117 25.5391 474.664 25.5391C474.794 25.5391 474.898 25.526 474.977 25.5C475.081 25.474 475.185 25.4349 475.289 25.3828C475.497 25.6172 475.68 25.8516 475.836 26.0859C476.018 26.2943 476.227 26.4896 476.461 26.6719ZM498.414 28.0781C498.414 28.5208 498.297 28.9115 498.062 29.25C497.854 29.5625 497.776 29.9531 497.828 30.4219C497.464 30.6302 497.164 30.9036 496.93 31.2422C496.695 31.5807 496.474 31.9323 496.266 32.2969C494.547 33.4167 492.698 34.3151 490.719 34.9922C488.766 35.6953 486.747 36.0469 484.664 36.0469C484.534 36.0469 484.417 35.9818 484.312 35.8516C484.208 35.7474 484.104 35.6302 484 35.5C483.896 35.3698 483.779 35.2396 483.648 35.1094C483.544 35.0052 483.414 34.9531 483.258 34.9531C483.076 34.9531 482.932 34.9922 482.828 35.0703C482.828 35.0182 482.828 34.9661 482.828 34.9141C482.854 34.888 482.867 34.849 482.867 34.7969C482.867 34.4844 482.828 34.1589 482.75 33.8203C482.672 33.5078 482.633 33.1953 482.633 32.8828C482.633 32.5182 482.698 32.2188 482.828 31.9844H483.297C483.557 31.9844 483.805 31.9714 484.039 31.9453C484.299 31.8932 484.573 31.8672 484.859 31.8672C485.146 31.8672 485.406 31.9453 485.641 32.1016C487.073 32.0495 488.427 31.7891 489.703 31.3203C491.005 30.8255 492.32 30.3438 493.648 29.875C493.857 29.5885 493.974 29.276 494 28.9375C494.052 28.5729 494.156 28.2344 494.312 27.9219C493.635 27.349 492.945 26.9062 492.242 26.5938C491.565 26.2552 490.771 26.138 489.859 26.2422C489.312 25.9036 488.727 25.7083 488.102 25.6562C487.503 25.6042 486.891 25.526 486.266 25.4219C486.109 25.3958 485.94 25.3698 485.758 25.3438C485.602 25.2917 485.432 25.2656 485.25 25.2656C485.12 25.2656 484.99 25.3047 484.859 25.3828C484.755 25.4349 484.729 25.526 484.781 25.6562C484.651 25.4479 484.469 25.3307 484.234 25.3047C484.026 25.2526 483.844 25.1484 483.688 24.9922C482.854 24.9401 482.125 24.7969 481.5 24.5625C480.875 24.3021 480.185 24.0156 479.43 23.7031C479.221 23.625 479.013 23.5729 478.805 23.5469C478.622 23.4948 478.44 23.4167 478.258 23.3125C477.789 23.0781 477.411 22.7656 477.125 22.375C476.839 21.9844 476.617 21.5547 476.461 21.0859C476.279 20.5911 476.148 20.0833 476.07 19.5625C475.992 19.0417 475.914 18.5599 475.836 18.1172C476.07 17.7005 476.292 17.2708 476.5 16.8281C476.682 16.3854 476.839 15.9167 476.969 15.4219C477.125 15.3438 477.281 15.2786 477.438 15.2266C477.594 15.1745 477.763 15.1094 477.945 15.0312C477.919 14.9792 477.906 14.9141 477.906 14.8359C477.906 14.7057 477.945 14.5755 478.023 14.4453C478.128 14.3151 478.154 14.1849 478.102 14.0547C478.674 13.5339 479.221 13 479.742 12.4531C480.289 11.8802 480.758 11.2552 481.148 10.5781C481.539 10.4479 481.852 10.2526 482.086 9.99219C482.32 9.73177 482.555 9.47135 482.789 9.21094C483.023 8.92448 483.284 8.67708 483.57 8.46875C483.857 8.23438 484.221 8.09115 484.664 8.03906C484.768 7.85677 484.911 7.71354 485.094 7.60938C485.276 7.47917 485.458 7.36198 485.641 7.25781C485.823 7.15365 485.992 7.03646 486.148 6.90625C486.305 6.77604 486.422 6.59375 486.5 6.35938C486.917 6.35938 487.294 6.28125 487.633 6.125C487.997 5.96875 488.349 5.79948 488.688 5.61719C489.026 5.4349 489.365 5.26562 489.703 5.10938C490.068 4.95312 490.458 4.875 490.875 4.875C490.979 4.875 491.083 4.88802 491.188 4.91406C491.292 4.91406 491.409 4.92708 491.539 4.95312C491.721 5.13542 491.839 5.35677 491.891 5.61719C491.969 5.85156 492.021 6.11198 492.047 6.39844C492.073 6.6849 492.086 6.97135 492.086 7.25781C492.112 7.54427 492.164 7.80469 492.242 8.03906C492.008 8.48177 491.747 8.92448 491.461 9.36719C491.201 9.8099 490.849 10.1484 490.406 10.3828H490.328C490.146 10.4089 489.977 10.3698 489.82 10.2656C489.664 10.1615 489.482 10.1094 489.273 10.1094C489.143 10.1094 489.039 10.1484 488.961 10.2266L488.766 10.4219C488.714 10.474 488.635 10.526 488.531 10.5781C488.453 10.6302 488.336 10.6302 488.18 10.5781C487.815 10.7083 487.672 10.9297 487.75 11.2422C487.255 11.2943 486.839 11.4505 486.5 11.7109C486.161 11.9453 485.849 12.2188 485.562 12.5312C485.276 12.8177 484.99 13.0911 484.703 13.3516C484.417 13.5859 484.078 13.7161 483.688 13.7422C483.245 14.5234 482.698 15.2135 482.047 15.8125C481.422 16.4115 480.901 17.0885 480.484 17.8438C480.562 18.0521 480.615 18.2734 480.641 18.5078C480.667 18.7422 480.706 18.9896 480.758 19.25C480.992 19.5625 481.266 19.8359 481.578 20.0703C481.917 20.3047 482.242 20.5391 482.555 20.7734H482.672C483.193 20.7734 483.674 20.8776 484.117 21.0859C484.56 21.2682 485.029 21.3594 485.523 21.3594C485.784 21.3594 486.005 21.3073 486.188 21.2031C486.865 21.3594 487.529 21.4896 488.18 21.5938C488.857 21.6979 489.534 21.776 490.211 21.8281C490.549 21.8802 490.888 21.9062 491.227 21.9062C491.591 21.9062 491.93 21.9453 492.242 22.0234C492.529 22.1016 492.815 22.2057 493.102 22.3359C493.388 22.4401 493.674 22.5573 493.961 22.6875C494.56 22.9479 495.12 23.2344 495.641 23.5469C496.188 23.8594 496.669 24.237 497.086 24.6797C497.503 25.0964 497.828 25.5911 498.062 26.1641C498.297 26.7109 498.414 27.349 498.414 28.0781ZM525.445 8.15625V8.3125C525.263 8.36458 525.172 8.49479 525.172 8.70312C524.885 8.83333 524.586 8.9375 524.273 9.01562C523.961 9.06771 523.661 9.15885 523.375 9.28906C523.089 9.26302 522.789 9.25 522.477 9.25C522.19 9.22396 521.904 9.21094 521.617 9.21094C520.836 9.21094 520.055 9.23698 519.273 9.28906C518.492 9.34115 517.711 9.34115 516.93 9.28906C516.565 9.4974 516.161 9.66667 515.719 9.79688C515.302 9.90104 514.898 9.95312 514.508 9.95312C514.195 9.95312 513.922 9.91406 513.688 9.83594C513.062 10.1484 512.372 10.4089 511.617 10.6172C510.888 10.8255 510.146 11.0339 509.391 11.2422C508.635 11.4245 507.906 11.6458 507.203 11.9062C506.526 12.1406 505.927 12.4792 505.406 12.9219C505.354 13.2865 505.315 13.651 505.289 14.0156C505.263 14.3542 505.25 14.6927 505.25 15.0312C505.25 15.3958 505.263 15.7344 505.289 16.0469C505.341 16.3594 505.432 16.6719 505.562 16.9844C505.693 17.0365 505.836 17.0755 505.992 17.1016C506.174 17.1276 506.331 17.1406 506.461 17.1406C506.591 17.1406 506.721 17.1276 506.852 17.1016C506.982 17.0495 507.073 16.9583 507.125 16.8281C507.516 16.776 507.906 16.763 508.297 16.7891C508.688 16.7891 509.078 16.7891 509.469 16.7891C509.859 16.7891 510.237 16.776 510.602 16.75C510.992 16.724 511.37 16.6589 511.734 16.5547C512.151 16.4505 512.555 16.3854 512.945 16.3594C513.362 16.3333 513.766 16.3073 514.156 16.2812C514.547 16.2552 514.951 16.2161 515.367 16.1641C515.784 16.0859 516.214 15.9427 516.656 15.7344C516.995 15.8646 517.333 15.9297 517.672 15.9297C518.036 15.9297 518.388 15.9557 518.727 16.0078C518.909 16.138 519.052 16.2812 519.156 16.4375C519.286 16.5938 519.352 16.776 519.352 16.9844C519.352 17.349 519.221 17.7135 518.961 18.0781C518.701 18.4427 518.492 18.7812 518.336 19.0938H517.906C517.281 19.0938 516.669 19.1849 516.07 19.3672C515.497 19.5234 514.911 19.7188 514.312 19.9531C513.74 20.1615 513.154 20.3568 512.555 20.5391C511.982 20.6953 511.383 20.7734 510.758 20.7734C510.654 20.7734 510.589 20.8385 510.562 20.9688C510.562 21.0729 510.536 21.151 510.484 21.2031C510.354 21.1771 510.159 21.1641 509.898 21.1641C509.299 21.1641 508.727 21.2292 508.18 21.3594C507.633 21.4896 507.073 21.5547 506.5 21.5547C506.344 21.5547 506.188 21.5547 506.031 21.5547C505.875 21.5286 505.719 21.5026 505.562 21.4766C505.432 21.6849 505.263 21.8281 505.055 21.9062C504.846 21.9583 504.651 22.0625 504.469 22.2188C504.391 22.4531 504.339 22.7396 504.312 23.0781C504.312 23.4167 504.299 23.7682 504.273 24.1328C504.273 24.4714 504.247 24.7969 504.195 25.1094C504.143 25.4219 504.039 25.6693 503.883 25.8516C503.909 25.9818 504.013 26.0339 504.195 26.0078C504.378 25.9557 504.469 26.0339 504.469 26.2422C504.469 26.4766 504.443 26.724 504.391 26.9844C504.339 27.2448 504.312 27.5052 504.312 27.7656C504.312 28.2604 504.365 28.8073 504.469 29.4062C504.599 29.9792 504.781 30.513 505.016 31.0078C505.276 31.5026 505.615 31.9193 506.031 32.2578C506.448 32.5703 506.969 32.7266 507.594 32.7266C508.01 32.7266 508.401 32.6484 508.766 32.4922C509.13 32.3359 509.43 32.0755 509.664 31.7109L509.859 31.6719C509.964 31.6719 510.055 31.6849 510.133 31.7109C510.237 31.737 510.341 31.75 510.445 31.75C510.602 31.75 510.797 31.6589 511.031 31.4766C511.292 31.2682 511.565 31.0339 511.852 30.7734C512.164 30.513 512.477 30.2656 512.789 30.0312C513.102 29.7708 513.401 29.5885 513.688 29.4844C513.87 29.1198 514.039 28.7552 514.195 28.3906C514.378 28.026 514.638 27.7396 514.977 27.5312V26.3984C515.237 26.112 515.51 25.8516 515.797 25.6172C516.109 25.3828 516.344 25.0833 516.5 24.7188C516.63 24.7708 516.747 24.8099 516.852 24.8359C516.982 24.862 517.112 24.875 517.242 24.875C517.372 24.875 517.503 24.862 517.633 24.8359C517.789 24.8099 517.932 24.7708 518.062 24.7188C518.271 25.0052 518.427 25.3307 518.531 25.6953C518.661 26.0339 518.818 26.3594 519 26.6719C518.766 27.1406 518.492 27.7005 518.18 28.3516C517.867 29.0026 517.529 29.6536 517.164 30.3047C516.799 30.9557 516.409 31.5807 515.992 32.1797C515.602 32.7526 515.211 33.1953 514.82 33.5078C514.742 33.5859 514.573 33.6771 514.312 33.7812C514.026 33.9896 513.766 34.1849 513.531 34.3672C513.297 34.5755 513.076 34.8099 512.867 35.0703C512.112 35.3047 511.383 35.6172 510.68 36.0078C510.003 36.3984 509.326 36.776 508.648 37.1406C508.336 37.0625 507.997 37.0234 507.633 37.0234C507.32 37.0234 507.008 37.0365 506.695 37.0625C506.383 37.1146 506.044 37.1406 505.68 37.1406C505.576 37.0104 505.419 36.9193 505.211 36.8672C505.029 36.8411 504.964 36.7109 505.016 36.4766C504.13 36.4245 503.414 36.1771 502.867 35.7344C502.32 35.3177 501.852 34.7969 501.461 34.1719C501.096 33.5469 500.797 32.8698 500.562 32.1406C500.328 31.4115 500.081 30.7083 499.82 30.0312V29.9141C499.82 29.7839 499.872 29.7057 499.977 29.6797C500.081 29.6536 500.133 29.5755 500.133 29.4453C500.133 29.3932 500.12 29.3542 500.094 29.3281C500.016 29.0417 499.951 28.7943 499.898 28.5859C499.846 28.3776 499.82 28.1302 499.82 27.8438C499.82 27.4271 499.846 27.0234 499.898 26.6328C499.951 26.2161 499.977 25.7995 499.977 25.3828C499.977 24.9661 499.924 24.6016 499.82 24.2891C499.924 24.1589 500.016 23.9896 500.094 23.7812C500.146 23.5469 500.185 23.3125 500.211 23.0781C500.237 22.8438 500.25 22.6094 500.25 22.375C500.276 22.1406 500.315 21.9323 500.367 21.75C500.263 21.4635 500.172 21.2161 500.094 21.0078C500.016 20.7734 499.977 20.5 499.977 20.1875V19.9141C500.237 19.4714 500.458 19.0156 500.641 18.5469C500.823 18.0781 501.018 17.5964 501.227 17.1016V16.9844C501.227 16.2292 501.201 15.474 501.148 14.7188C501.096 13.9635 501.07 13.2083 501.07 12.4531V11.7109C501.07 11.4505 501.083 11.2031 501.109 10.9688C501.318 10.8646 501.474 10.7214 501.578 10.5391C501.682 10.3568 501.839 10.2135 502.047 10.1094H503.336L503.57 9.71875C503.648 9.58854 503.701 9.44531 503.727 9.28906C504.013 9.21094 504.286 9.10677 504.547 8.97656C504.833 8.82031 505.094 8.66406 505.328 8.50781C505.693 8.29948 506.018 8.11719 506.305 7.96094C506.617 7.77865 506.917 7.63542 507.203 7.53125C507.516 7.40104 507.841 7.29688 508.18 7.21875C508.518 7.14062 508.909 7.07552 509.352 7.02344C509.56 7.02344 509.69 6.98438 509.742 6.90625C509.82 6.82812 509.924 6.73698 510.055 6.63281C510.367 6.6849 510.68 6.73698 510.992 6.78906C511.305 6.8151 511.617 6.82812 511.93 6.82812C512.555 6.82812 513.141 6.71094 513.688 6.47656C514.469 6.47656 515.237 6.46354 515.992 6.4375C516.773 6.41146 517.555 6.39844 518.336 6.39844C519.013 6.39844 519.69 6.42448 520.367 6.47656C521.044 6.52865 521.708 6.61979 522.359 6.75C522.594 6.67188 522.854 6.63281 523.141 6.63281C523.453 6.63281 523.766 6.67188 524.078 6.75C524.417 6.80208 524.742 6.80208 525.055 6.75C525.081 7.03646 525.146 7.28385 525.25 7.49219C525.38 7.67448 525.445 7.89583 525.445 8.15625ZM548.414 27.6484C548.284 27.8568 548.128 28.0521 547.945 28.2344C547.763 28.3906 547.594 28.5599 547.438 28.7422C547.255 28.8203 547.047 28.8594 546.812 28.8594C546.604 28.8594 546.396 28.8594 546.188 28.8594C546.005 28.8333 545.823 28.8333 545.641 28.8594C545.484 28.8594 545.354 28.9115 545.25 29.0156C545.042 28.9635 544.885 28.8724 544.781 28.7422C544.677 28.5859 544.495 28.4948 544.234 28.4688C544.13 28.4427 544.026 28.4427 543.922 28.4688C543.531 28.026 543.167 27.5573 542.828 27.0625C542.516 26.5677 542.216 26.099 541.93 25.6562C541.904 24.6927 541.826 23.7161 541.695 22.7266C541.669 22.4922 541.63 22.2578 541.578 22.0234C541.526 21.7891 541.487 21.5677 541.461 21.3594C541.461 21.099 541.474 20.8516 541.5 20.6172C541.552 20.3568 541.591 20.1224 541.617 19.9141C541.721 19.1589 541.839 18.4167 541.969 17.6875C542.099 16.9583 542.216 16.2161 542.32 15.4609C542.424 14.7839 542.477 14.0807 542.477 13.3516C542.477 12.5964 542.359 11.8932 542.125 11.2422L542.086 11.0469C542.138 10.8385 542.19 10.6693 542.242 10.5391C542.32 10.3828 542.372 10.2135 542.398 10.0312C542.451 9.74479 542.385 9.53646 542.203 9.40625C542.281 9.19792 542.411 9.06771 542.594 9.01562C542.776 8.9375 542.88 8.78125 542.906 8.54688C542.932 8.44271 542.932 8.33854 542.906 8.23438C543.115 8.15625 543.323 8.09115 543.531 8.03906C543.766 7.96094 543.987 7.94792 544.195 8C544.534 8.05208 544.833 8.16927 545.094 8.35156C545.354 8.50781 545.602 8.6901 545.836 8.89844C546.253 10.1484 546.422 11.4766 546.344 12.8828C546.266 14.263 546.135 15.6562 545.953 17.0625C545.771 18.4688 545.654 19.849 545.602 21.2031C545.549 22.5312 545.758 23.7682 546.227 24.9141L546.305 24.9531C546.435 24.9792 546.539 24.9401 546.617 24.8359C546.695 24.7057 546.799 24.6536 546.93 24.6797C547.034 24.7318 547.099 24.7578 547.125 24.7578C547.229 25.2786 547.398 25.7734 547.633 26.2422C547.867 26.7109 548.128 27.1797 548.414 27.6484ZM585.758 7.88281C585.654 8.22135 585.484 8.53385 585.25 8.82031L584.586 9.64062C584.378 9.90104 584.195 10.1875 584.039 10.5C583.909 10.7865 583.87 11.125 583.922 11.5156C583.87 11.5156 583.805 11.5156 583.727 11.5156C583.648 11.4896 583.583 11.4766 583.531 11.4766C583.115 11.4766 582.789 11.5807 582.555 11.7891C582.346 11.9714 582.06 12.1276 581.695 12.2578C581.643 12.1016 581.578 11.9583 581.5 11.8281C581.422 11.6719 581.305 11.5677 581.148 11.5156C580.523 11.6458 579.898 11.75 579.273 11.8281C578.648 11.8802 578.023 11.9583 577.398 12.0625C577.112 12.1146 576.826 12.1927 576.539 12.2969C576.253 12.375 575.953 12.4531 575.641 12.5312C575.484 12.5833 575.315 12.6094 575.133 12.6094C574.951 12.5833 574.768 12.5833 574.586 12.6094C573.961 12.6354 573.284 12.6875 572.555 12.7656C571.826 12.8177 571.174 13.013 570.602 13.3516C570.341 13.2995 570.068 13.2604 569.781 13.2344C569.495 13.2083 569.208 13.1953 568.922 13.1953C568.297 13.1953 567.607 13.2604 566.852 13.3906C566.122 13.4948 565.471 13.7161 564.898 14.0547C564.768 14.0026 564.625 13.9635 564.469 13.9375C564.339 13.9115 564.182 13.8984 564 13.8984C563.948 13.8984 563.909 13.9115 563.883 13.9375C563.857 13.9375 563.818 13.9375 563.766 13.9375C563.74 14.1719 563.766 14.4062 563.844 14.6406C563.948 14.849 564.117 15.0182 564.352 15.1484C564.247 15.4349 564.195 15.7474 564.195 16.0859C564.195 16.5286 564.221 16.9714 564.273 17.4141C564.352 17.8568 564.391 18.2995 564.391 18.7422C564.391 19.237 564.326 19.6276 564.195 19.9141C564.456 20.6953 564.586 21.5286 564.586 22.4141C564.586 22.7266 564.56 23.0391 564.508 23.3516C564.482 23.638 564.469 23.9505 564.469 24.2891C564.469 24.5755 564.573 24.8099 564.781 24.9922C564.99 25.1484 565.094 25.3698 565.094 25.6562C565.094 25.7604 565.068 25.8646 565.016 25.9688C565.38 25.8906 565.732 25.7865 566.07 25.6562C566.409 25.5 566.76 25.4219 567.125 25.4219C567.333 25.4219 567.529 25.4609 567.711 25.5391C567.919 25.6172 568.102 25.7214 568.258 25.8516C568.232 25.9818 568.206 26.125 568.18 26.2812C568.18 26.4375 568.18 26.5938 568.18 26.75C568.18 27.0365 568.18 27.3099 568.18 27.5703C568.206 27.8047 568.232 28.0651 568.258 28.3516C568.049 28.7161 567.802 29.0417 567.516 29.3281C567.255 29.6146 567.073 29.9792 566.969 30.4219C566.578 30.4219 566.227 30.513 565.914 30.6953C565.628 30.8516 565.354 31.0339 565.094 31.2422C564.833 31.4245 564.573 31.6068 564.312 31.7891C564.052 31.9453 563.766 32.0234 563.453 32.0234C563.062 32.0234 562.789 31.9714 562.633 31.8672C562.477 31.737 562.359 31.6068 562.281 31.4766C562.203 31.3464 562.125 31.2292 562.047 31.125C561.995 31.0208 561.865 30.9818 561.656 31.0078C561.604 30.6693 561.5 30.3568 561.344 30.0703C561.188 29.7578 561.018 29.4583 560.836 29.1719C560.68 28.8854 560.51 28.599 560.328 28.3125C560.172 28 560.055 27.6875 559.977 27.375C559.82 26.6979 559.755 25.9948 559.781 25.2656C559.807 24.5365 559.69 23.8333 559.43 23.1562C559.482 22.7917 559.521 22.4271 559.547 22.0625C559.573 21.6719 559.586 21.2943 559.586 20.9297C559.586 20.2005 559.56 19.4844 559.508 18.7812C559.482 18.0521 559.456 17.3099 559.43 16.5547C559.247 16.3203 559.13 16.0599 559.078 15.7734C559.052 15.4609 559.026 15.1615 559 14.875C558.922 14.7969 558.831 14.7188 558.727 14.6406C558.648 14.5625 558.596 14.4583 558.57 14.3281C558.362 14.276 558.206 14.25 558.102 14.25C557.737 14.25 557.424 14.3411 557.164 14.5234C556.93 14.6797 556.708 14.7578 556.5 14.7578C556.292 14.7578 556.096 14.7318 555.914 14.6797C555.732 14.6276 555.549 14.6016 555.367 14.6016C555.211 14.6016 555.12 14.6406 555.094 14.7188C555.094 14.7708 555.042 14.8229 554.938 14.875C554.859 14.9271 554.677 14.9792 554.391 15.0312C554.104 15.0833 553.779 15.1354 553.414 15.1875C553.076 15.2135 552.737 15.2396 552.398 15.2656C552.086 15.2917 551.878 15.3047 551.773 15.3047C551.357 15.3047 551.044 15.2266 550.836 15.0703C550.602 14.888 550.328 14.6927 550.016 14.4844C550.068 14.3281 550.094 14.224 550.094 14.1719C550.094 13.9115 550.016 13.7031 549.859 13.5469C549.703 13.3646 549.625 13.2083 549.625 13.0781C549.625 12.7917 549.742 12.5703 549.977 12.4141C550.185 12.2578 550.302 12.0104 550.328 11.6719C550.927 11.4115 551.539 11.2161 552.164 11.0859C552.789 10.9557 553.427 10.8516 554.078 10.7734C554.729 10.6953 555.367 10.6042 555.992 10.5C556.643 10.3958 557.281 10.2266 557.906 9.99219C558.089 10.0182 558.258 10.0443 558.414 10.0703C558.596 10.0703 558.779 10.0703 558.961 10.0703C559.742 10.0703 560.51 9.99219 561.266 9.83594C562.047 9.65365 562.841 9.5625 563.648 9.5625C563.857 9.5625 564.065 9.57552 564.273 9.60156C564.482 9.6276 564.69 9.66667 564.898 9.71875C565.94 9.5625 566.969 9.39323 567.984 9.21094C569.026 9.02865 570.094 8.8724 571.188 8.74219C571.708 8.6901 572.216 8.65104 572.711 8.625C573.232 8.57292 573.753 8.50781 574.273 8.42969C574.456 8.40365 574.586 8.36458 574.664 8.3125C574.768 8.23438 574.82 8.09115 574.82 7.88281C575.055 7.98698 575.315 8.03906 575.602 8.03906C576.044 8.03906 576.474 7.96094 576.891 7.80469C577.307 7.64844 577.737 7.57031 578.18 7.57031C578.284 7.57031 578.375 7.58333 578.453 7.60938C578.531 7.60938 578.609 7.60938 578.688 7.60938C578.87 7.60938 578.961 7.53125 578.961 7.375C578.987 7.19271 579.117 7.07552 579.352 7.02344C579.534 6.97135 579.794 6.93229 580.133 6.90625C580.471 6.88021 580.823 6.85417 581.188 6.82812C581.578 6.77604 581.93 6.72396 582.242 6.67188C582.581 6.59375 582.828 6.48958 582.984 6.35938L583.258 5.92969C583.727 5.95573 584.065 6.16406 584.273 6.55469C584.508 6.91927 584.638 7.32292 584.664 7.76562C584.768 7.86979 584.911 7.92188 585.094 7.92188C585.302 7.89583 585.484 7.88281 585.641 7.88281H585.758Z" fill="#818cf8"/>
<path d="M301.695 23H435.211V24.9922H301.695V23Z" fill="#404040" fill-opacity="0.3"/>
</svg>
